<svg xmlns="http://www.w3.org/2000/svg">
<defs>
<font id="aAngkatanBersenjata" horiz-adv-x="993" >
  <font-face 
    font-family="a Angkatan Bersenjata"
    font-weight="400"
    font-stretch="normal"
    units-per-em="2048"
    panose-1="2 0 5 3 0 0 0 0 0 0"
    ascent="1638"
    descent="-410"
    x-height="1536"
    cap-height="1536"
    bbox="14 -344 2089 1677"
    underline-thickness="102"
    underline-position="-307"
    unicode-range="U+0020-007E"
  />
<missing-glyph horiz-adv-x="2201" 
d="M483 461q9 0 9 8l-115 565h16q8 0 8 8v25q0 8 -8 8h-194q-9 0 -9 -8v-25q0 -8 9 -8h30l117 -565q0 -8 8 -8h129zM782 461q9 0 9 8l-115 565h33q8 0 8 8v25q0 8 -8 8h-211q-9 0 -9 -8v-25q0 -8 9 -8h30l117 -565q0 -8 8 -8h129zM518 594l25 119q1 4 3.5 11.5t2.5 12.5
q0 7 -4 23l-15 63q-3 13 -6 13q-5 0 -8 -17l-27 -119q-4 -20 -4 -24q0 -7 4 -23l13 -65q3 -13 6 -13q4 0 10 19zM1757 1034q47 0 72.5 -38t25.5 -89t-25.5 -89t-72.5 -38h-14q-8 0 -8 -8v-24q0 -9 8 -9h96q79 0 122.5 50t43.5 118t-43.5 118t-122.5 50h-96q-8 0 -8 -8v-25
q0 -8 8 -8h14zM821 1075q-8 0 -8 -8v-25q0 -8 8 -8h19l-52 -334q-4 -20 -4 -24q0 -7 4 -23l17 -65q3 -13 8 -13t8 19l82 440h31q8 0 8 8v25q0 8 -8 8h-113zM1044 1034v-532h-24q-8 0 -8 -8v-25q0 -8 8 -8h162q8 0 8 8v598q0 8 -8 8h-162q-8 0 -8 -8v-25q0 -8 8 -8h24z
M1325 1034l57 -82q5 -8 17 -8h39q8 0 8 8v115q0 8 -8 8h-207q-8 0 -8 -8v-25q0 -8 8 -8h94zM1438 461q8 0 8 8v115q0 8 -8 8h-39q-12 0 -17 -8l-57 -82h-94q-8 0 -8 -8v-25q0 -8 8 -8h207zM1276 739l57 -82q5 -8 17 -8h14q8 0 8 8v205q0 8 -8 8h-14q-12 0 -17 -8l-57 -82
h-45q-8 0 -8 -8v-24q0 -9 8 -9h45zM1556 1034v-532h-24q-8 0 -8 -8v-25q0 -8 8 -8h194q9 0 9 8v25q0 8 -9 8h-24v565q0 8 -8 8h-162q-8 0 -8 -8v-25q0 -8 8 -8h24zM135 1548h1933q21 0 21 -20v-1487q0 -9 -6 -15t-15 -6h-1933q-20 0 -20 21v1487q0 20 20 20z" />
    <glyph glyph-name=".notdef" horiz-adv-x="2201" 
d="M483 461q9 0 9 8l-115 565h16q8 0 8 8v25q0 8 -8 8h-194q-9 0 -9 -8v-25q0 -8 9 -8h30l117 -565q0 -8 8 -8h129zM782 461q9 0 9 8l-115 565h33q8 0 8 8v25q0 8 -8 8h-211q-9 0 -9 -8v-25q0 -8 9 -8h30l117 -565q0 -8 8 -8h129zM518 594l25 119q1 4 3.5 11.5t2.5 12.5
q0 7 -4 23l-15 63q-3 13 -6 13q-5 0 -8 -17l-27 -119q-4 -20 -4 -24q0 -7 4 -23l13 -65q3 -13 6 -13q4 0 10 19zM1757 1034q47 0 72.5 -38t25.5 -89t-25.5 -89t-72.5 -38h-14q-8 0 -8 -8v-24q0 -9 8 -9h96q79 0 122.5 50t43.5 118t-43.5 118t-122.5 50h-96q-8 0 -8 -8v-25
q0 -8 8 -8h14zM821 1075q-8 0 -8 -8v-25q0 -8 8 -8h19l-52 -334q-4 -20 -4 -24q0 -7 4 -23l17 -65q3 -13 8 -13t8 19l82 440h31q8 0 8 8v25q0 8 -8 8h-113zM1044 1034v-532h-24q-8 0 -8 -8v-25q0 -8 8 -8h162q8 0 8 8v598q0 8 -8 8h-162q-8 0 -8 -8v-25q0 -8 8 -8h24z
M1325 1034l57 -82q5 -8 17 -8h39q8 0 8 8v115q0 8 -8 8h-207q-8 0 -8 -8v-25q0 -8 8 -8h94zM1438 461q8 0 8 8v115q0 8 -8 8h-39q-12 0 -17 -8l-57 -82h-94q-8 0 -8 -8v-25q0 -8 8 -8h207zM1276 739l57 -82q5 -8 17 -8h14q8 0 8 8v205q0 8 -8 8h-14q-12 0 -17 -8l-57 -82
h-45q-8 0 -8 -8v-24q0 -9 8 -9h45zM1556 1034v-532h-24q-8 0 -8 -8v-25q0 -8 8 -8h194q9 0 9 8v25q0 8 -9 8h-24v565q0 8 -8 8h-162q-8 0 -8 -8v-25q0 -8 8 -8h24zM135 1548h1933q21 0 21 -20v-1487q0 -9 -6 -15t-15 -6h-1933q-20 0 -20 21v1487q0 20 20 20z" />
    <glyph glyph-name=".null" horiz-adv-x="0" 
 />
    <glyph glyph-name="nonmarkingreturn" horiz-adv-x="682" 
 />
    <glyph glyph-name="space" unicode=" " horiz-adv-x="714" 
 />
    <glyph glyph-name="exclam" unicode="!" horiz-adv-x="561" 
d="M147 852q-20 269 -20 504q0 93 46 144.5t108 51.5t107.5 -51.5t45.5 -144.5q0 -235 -20 -504q-10 -68 -34 -163t-42 -157l-19 -61q-3 -20 -20 -20h-37q-17 0 -20 20q-72 229 -95 381zM84 188q0 82 57.5 139.5t139.5 57.5t139 -57.5t57 -139.5t-57 -139t-139 -57
t-139.5 57t-57.5 139z" />
    <glyph glyph-name="quotedbl" unicode="&#x22;" horiz-adv-x="765" 
d="M432 1548h227q12 0 15 -12l-41 -481q1 -6 -4 -10.5t-11 -4.5h-124q-11 0 -15 15l-61 481q-1 6 3 9t11 3zM104 1548h228q11 0 14 -12l-41 -481q1 -6 -3.5 -10.5t-10.5 -4.5h-125q-10 0 -14 15l-62 481q-1 6 3 9t11 3z" />
    <glyph glyph-name="numbersign" unicode="#" horiz-adv-x="1368" 
d="M1178 1516q0 20 20 20h129q21 0 21 -20l-285 -592h207q20 0 20 -21v-63q0 -21 -20 -21h-258l-88 -182h223q20 0 20 -21v-63q0 -21 -20 -21h-273l-247 -512q0 -20 -21 -20h-129q-20 0 -20 20l248 512h-181q-12 0 -19 7t-1 18l28 59q9 21 41 21h181zM197 20q0 -20 -21 -20
h-129q-20 0 -20 20l247 512h-186q-20 0 -20 21v63q0 21 20 21h236l88 182h-201q-9 0 -15 6t-6 15v63q0 9 6 15t15 6h252l285 592q0 20 20 20h129q21 0 21 -20l-285 -592h172q11 0 17.5 -8t0.5 -19l-26 -55q-10 -23 -41 -23h-174z" />
    <glyph glyph-name="dollar" unicode="$" horiz-adv-x="1351" 
d="M111 1081q0 79 35.5 161t92.5 146.5t136 106t160 41.5h36q21 0 21 -20v-64q0 -20 -21 -20h-16q-30 0 -52 -68t-22 -145q0 -66 26.5 -118.5t71.5 -87t103.5 -63.5t123.5 -53t129.5 -50t123 -60.5t103.5 -78t71.5 -109.5t26.5 -148q0 -78 -38.5 -159.5t-100.5 -145.5
t-149 -105t-177 -41h-37q-21 0 -21 20v64q0 20 21 20h16q48 0 81.5 63.5t33.5 139.5q0 58 -26.5 105t-71.5 80t-103.5 61.5t-123 54.5t-129 54.5t-123 66.5t-103.5 84.5t-71.5 115t-26.5 152.5zM635 -141h-129q-21 0 -21 20v131q-170 29 -299 148v-138q0 -20 -20 -20h-64
q-20 0 -20 20v488q0 20 20 20h64q20 0 20 -20q0 -90 65.5 -185t168 -157t201.5 -62h14q20 0 20 -20v-205q0 -20 -20 -20zM1102 1386v130q0 20 20 20h64q20 0 20 -20v-488q0 -20 -20 -20h-64q-20 0 -20 20q0 90 -59 185t-151.5 157t-182.5 62h-15q-20 0 -20 20v205
q0 20 20 20h129q21 0 21 -20v-133q145 -28 258 -138z" />
    <glyph glyph-name="percent" unicode="%" horiz-adv-x="1394" 
d="M1079 696h-6q-12 0 -12 9v32q0 11 12 11h17q92 0 154.5 -57t88 -140.5t25.5 -185.5q0 -75 -15 -142t-46 -122.5t-84 -88t-123 -32.5h-19q-10 0 -10 10v30q0 13 10 13h8q80 0 80 332q0 331 -80 331zM1004 33h6q10 0 10 -13v-30q0 -10 -10 -10h-19q-70 0 -122.5 32.5
t-83 88t-45.5 122t-15 142.5t15 142t45.5 121.5t83 87.5t122.5 32h21q8 0 8 -11v-32q0 -9 -8 -9h-8q-80 0 -80 -336q0 -327 80 -327zM379 1503h-6q-13 0 -13 13v30q0 10 13 10h16q70 0 123 -32.5t84 -88t46 -122.5t15 -142q0 -102 -25.5 -185.5t-88 -140.5t-154.5 -57h-18
q-11 0 -11 11v32q0 9 11 9h8q80 0 80 336q0 327 -80 327zM303 840h6q10 0 10 -9v-32q0 -11 -10 -11h-18q-70 0 -122.5 32t-83 87.5t-45.5 121.5t-15 142t15 142.5t45.5 122t83 88t122.5 32.5h20q8 0 8 -10v-30q0 -13 -8 -13h-8q-80 0 -80 -332q0 -331 80 -331zM397 0h-127
q-20 0 -20 20l721 1496q0 20 20 20h127q21 0 21 -20l-721 -1496q0 -20 -21 -20z" />
    <glyph glyph-name="ampersand" unicode="&#x26;" horiz-adv-x="1425" 
d="M596 1432q-41 0 -69.5 -99t-28.5 -221q0 -116 29 -194t89 -78h199q9 0 15 -6t6 -15v-63q0 -9 -6 -15t-15 -6h-219q-75 0 -117.5 -94.5t-42.5 -222.5t42.5 -221t117.5 -93h57q21 0 21 -20v-64q0 -20 -21 -20h-159q-99 0 -179.5 36t-130 96t-76 134t-26.5 154q0 149 88 252
t252 123q-127 34 -192.5 122t-65.5 209q0 78 27 150t77 130.5t129.5 94t177.5 35.5h56q20 0 20 -20v-64q0 -20 -20 -20h-35zM1206 188q-154 -188 -393 -188h-37q-20 0 -20 20v64q0 20 20 20h17q52 0 108 17v368h-61q-9 0 -15 6t-6 15v63q0 9 6 15t15 6h61v225q0 9 6 15t15 6
h323q9 0 15 -6t6 -15v-225h61q9 0 15 -6t6 -15v-63q0 -9 -6 -15t-15 -6h-61v-192v-2q0 -37 -60 -107zM1079 1407v109q0 20 21 20h63q21 0 21 -20v-488q0 -20 -21 -20h-63q-21 0 -21 20q0 90 -46.5 185t-120 157t-144.5 62h-14q-21 0 -21 20v64q0 20 21 20h34q168 0 291 -129
z" />
    <glyph glyph-name="quotesingle" unicode="'" horiz-adv-x="438" 
d="M104 1548h228q11 0 14 -12l-41 -481q1 -6 -3.5 -10.5t-10.5 -4.5h-125q-10 0 -14 15l-62 481q-1 6 3 9t11 3z" />
    <glyph glyph-name="parenleft" unicode="(" horiz-adv-x="671" 
d="M584 -223h14q20 0 20 -21v-63q0 -21 -20 -21h-35q-99 0 -183 55t-143.5 149t-101.5 219.5t-62 266.5t-20 291t20 291.5t62 267.5t101.5 221t143.5 150t183 55h37q21 0 21 -20v-64q0 -20 -21 -20h-16q-76 0 -137.5 -76.5t-100 -203t-59.5 -283.5t-21 -326q0 -167 20 -320
t58.5 -277t100.5 -197.5t139 -73.5z" />
    <glyph glyph-name="parenright" unicode=")" horiz-adv-x="669" 
d="M86 1534h-14q-21 0 -21 20v64q0 20 21 20h34q99 0 183 -55t143.5 -149t101.5 -219.5t62 -266.5t20 -291t-20 -291.5t-62 -267.5t-101.5 -221t-143.5 -150t-183 -55h-36q-9 0 -15 6t-6 15v63q0 9 6 15t15 6h16q76 0 137.5 76t100 203t59 284t20.5 326q0 167 -20 320
t-58 277t-100 197.5t-139 73.5z" />
    <glyph glyph-name="asterisk" unicode="*" horiz-adv-x="897" 
d="M358 1544h160q5 0 8 -10l-20 -260l239 112q3 3 8 1t7 -7l49 -151q1 -3 0 -4.5t-4 -4t-4 -3.5l-250 -58l182 -194q7 -7 -2 -15l-129 -92q-6 -6 -14 2l-133 223l-127 -231q-1 -4 -6.5 -4.5t-8.5 2.5l-129 92q-5 5 -2 14l170 197l-260 49q-10 0 -6 12l49 152q2 6 12 6
l234 -98l-33 260q-1 4 2 7t8 3z" />
    <glyph glyph-name="plus" unicode="+" horiz-adv-x="985" 
d="M545 575h323q21 0 21 -20v-63q0 -9 -6 -15t-15 -6h-323v-324q0 -20 -21 -20h-63q-21 0 -21 20v324h-323q-9 0 -15 6t-6 15v63q0 20 21 20h323v324q0 9 6 15t15 6h63q9 0 15 -6t6 -15v-324z" />
    <glyph glyph-name="comma" unicode="," horiz-adv-x="585" 
d="M121 188q0 82 57 139.5t139 57.5t139.5 -57.5t57.5 -139.5q0 -99 -27 -190t-77 -164.5t-131 -117.5t-181 -44h-37q-20 0 -20 21v63q0 21 20 21h17q70 0 121 60t77 159q-67 14 -111 68t-44 124z" />
    <glyph glyph-name="hyphen" unicode="-" 
d="M121 575h751q21 0 21 -20v-63q0 -9 -6 -15t-15 -6h-751q-9 0 -15 6t-6 15v63q0 20 21 20z" />
    <glyph glyph-name="period" unicode="." horiz-adv-x="567" 
d="M98 188q0 82 57.5 139.5t139.5 57.5t139.5 -57.5t57.5 -139.5t-57.5 -139t-139.5 -57t-139.5 57t-57.5 139z" />
    <glyph glyph-name="slash" unicode="/" horiz-adv-x="1032" 
d="M223 0h-129q-20 0 -20 20l721 1496q0 20 20 20h129q21 0 21 -20l-721 -1496q0 -20 -21 -20z" />
    <glyph glyph-name="zero" unicode="0" horiz-adv-x="1386" 
d="M776 1432h-14q-21 0 -21 20v64q0 20 21 20h35q112 0 203 -43t152 -116t102.5 -172.5t60 -208.5t18.5 -228t-18.5 -228t-60 -208.5t-102.5 -172.5t-152 -116t-203 -43h-37q-21 0 -21 20v64q0 20 21 20h16q160 0 160 668q0 660 -160 660zM623 104h14q20 0 20 -20v-64
q0 -20 -20 -20h-35q-112 0 -203 43t-151.5 116t-102 172.5t-59.5 208.5t-18 228t18 228t59.5 208.5t102 172.5t151.5 116t203 43h37q20 0 20 -20v-64q0 -20 -20 -20h-16q-39 0 -67.5 -38.5t-45.5 -99.5t-27.5 -151.5t-14 -179.5t-3.5 -199q0 -108 3.5 -196t14 -177.5
t27.5 -150t45.5 -98.5t67.5 -38z" />
    <glyph glyph-name="one" unicode="1" horiz-adv-x="632" 
d="M174 1536h324q20 0 20 -20v-1412h62q20 0 20 -20v-64q0 -20 -20 -20h-488q-20 0 -20 20v64q0 20 20 20h62v1067h-103q-20 0 -20 21v98q0 11 20 41l103 185q0 20 20 20z" />
    <glyph glyph-name="two" unicode="2" horiz-adv-x="1241" 
d="M1182 1081q0 -84 -25 -157t-68 -128t-98.5 -104t-116.5 -89t-122 -78.5t-116.5 -77.5t-98.5 -80t-68 -93t-25 -110v-144q0 -20 -20 -20h-330q-20 0 -20 25v282q0 82 25 153t68 123t98 97t116 83t122.5 74t116.5 75.5t98 82.5t68 100.5t25 123.5q0 54 -10.5 104.5
t-38 89.5t-66.5 39h-16q-9 0 -15 6t-6 15v63q0 20 21 20h37q96 0 184.5 -44.5t148.5 -113.5t96 -153t36 -164zM231 1407q142 149 291 149h35q21 0 21 -20v-63q0 -9 -6 -15t-15 -6h-14q-71 0 -145 -67.5t-120.5 -167t-46.5 -189.5q0 -20 -20 -20h-64q-20 0 -20 20v488
q0 20 20 20h64q20 0 20 -20v-109zM1147 0h-557q-21 0 -21 20v64q0 20 21 20h272l146 203q15 21 41 21h98q20 0 20 -21v-287q0 -20 -20 -20z" />
    <glyph glyph-name="three" unicode="3" horiz-adv-x="1257" 
d="M688 1452h-35q-20 0 -20 21v63q0 20 20 20h56q97 0 177.5 -38.5t130 -101t76.5 -137.5t27 -153q0 -121 -65.5 -209t-192.5 -122q164 -20 252 -123t88 -252q0 -80 -26.5 -155.5t-76 -137.5t-129.5 -99.5t-179 -37.5h-160q-21 0 -21 20v64q0 20 21 20h57q51 0 88 49
t54.5 121t17.5 154q0 128 -42.5 222.5t-117.5 94.5h-219q-20 0 -20 21v63q0 21 20 21h199q60 0 89 78t29 194q0 124 -28.5 232t-69.5 108zM246 1419q122 137 250 137h34q21 0 21 -20v-63q0 -9 -6 -15t-15 -6h-14q-61 0 -125 -67.5t-104.5 -167t-40.5 -189.5q0 -20 -21 -20
h-63q-21 0 -21 20v488q0 20 21 20h63q21 0 21 -20v-97zM295 221q103 -127 199 -127h14q20 0 20 -20v-64q0 -20 -20 -20h-35q-67 0 -139.5 33.5t-132.5 89t-99 136.5t-39 167q0 82 57.5 139t139.5 57t139.5 -57t57.5 -139q0 -72 -46.5 -127.5t-115.5 -67.5z" />
    <glyph glyph-name="four" unicode="4" horiz-adv-x="1216" 
d="M993 1536h62q20 0 20 -20v-1002h62q20 0 20 -20v-64q0 -20 -20 -20h-62v-306h62q20 0 20 -20v-64q0 -20 -20 -20h-488q-20 0 -20 20v64q0 20 20 20h62v977q0 15 7 37t15 33l230 369q10 16 30 16zM850 1536q10 0 16.5 -5.5t3.5 -14.5l-614 -1002h352q21 0 21 -20v-64
q0 -20 -21 -20h-542q-21 0 -21 20l666 1086q7 20 20 20h119z" />
    <glyph glyph-name="five" unicode="5" horiz-adv-x="1284" 
d="M711 885h-119q-21 0 -21 20v64q0 20 21 20h221q99 0 179.5 -42t130 -112t76 -157t26.5 -182t-26.5 -184t-76 -161.5t-130 -116.5t-179.5 -44h-160q-20 0 -20 20v64q0 20 20 20h58q51 0 88 60t54 148.5t17 189.5q0 102 -17 189.5t-54 145.5t-88 58zM317 221
q103 -127 199 -127h14q21 0 21 -20v-64q0 -20 -21 -20h-34q-67 0 -139.5 33.5t-132.5 89t-99 136.5t-39 167q0 82 57.5 139t139.5 57t139 -57t57 -139q0 -72 -46.5 -127.5t-115.5 -67.5zM125 1436h-62q-20 0 -20 20v64q0 20 20 20h406q20 0 20 -20v-615q0 -20 -20 -20h-324
q-20 0 -20 20v531zM823 1436h-231q-21 0 -21 20v64q0 20 21 20h516q20 0 20 -20v-287q0 -21 -20 -21h-98q-26 0 -41 21z" />
    <glyph glyph-name="six" unicode="6" horiz-adv-x="1337" 
d="M776 879h-14q-21 0 -21 20v64q0 20 21 20h35q115 0 207.5 -41.5t149.5 -111t87.5 -156t30.5 -180.5q0 -95 -30.5 -184.5t-87.5 -164t-150 -120t-207 -45.5h-37q-21 0 -21 20v63q0 9 6 15t15 6h16q48 0 74.5 122.5t26.5 282.5q0 157 -27 273.5t-74 116.5zM623 84h14
q20 0 20 -21v-63q0 -20 -20 -20h-35q-112 0 -203 45.5t-151.5 121t-102 178t-59.5 213.5t-18 230t18 230t59.5 213.5t102 178t151.5 121t203 45.5h37q20 0 20 -20v-63q0 -21 -20 -21h-16q-137 0 -156 -494q64 25 137 25h35q20 0 20 -20v-64q0 -20 -20 -20h-14
q-81 0 -160 -76v-39q0 -680 158 -680zM1087 1407v109q0 20 21 20h63q21 0 21 -20v-406q0 -20 -21 -20h-63q-21 0 -21 20q0 134 -98.5 238t-212.5 104h-14q-9 0 -15 6t-6 15v63q0 20 21 20h35q148 0 290 -149z" />
    <glyph glyph-name="seven" unicode="7" horiz-adv-x="1105" 
d="M494 0h-355q-20 0 -20 20l577 1496q0 20 21 20h354q21 0 21 -20l-578 -1496q0 -20 -20 -20zM16 1516q0 20 21 20h508q20 0 20 -20v-64q0 -20 -20 -20h-223l-146 -203q-15 -21 -41 -21h-98q-9 0 -15 6t-6 15v287z" />
    <glyph glyph-name="eight" unicode="8" horiz-adv-x="1341" 
d="M772 1452h-35q-20 0 -20 21v63q0 20 20 20h56q97 0 177.5 -38.5t130 -101t76.5 -137.5t27 -153q0 -121 -65.5 -209t-192.5 -122q164 -20 252 -123t88 -252q0 -80 -26.5 -155.5t-76 -137.5t-130 -99.5t-179.5 -37.5h-159q-21 0 -21 20v64q0 20 21 20h57q51 0 88 49
t54.5 121t17.5 154q0 128 -42.5 222.5t-117.5 94.5h-192q-75 0 -117.5 -94.5t-42.5 -222.5q0 -82 17.5 -154t54.5 -121t88 -49h57q20 0 20 -20v-64q0 -20 -20 -20h-160q-99 0 -179 37.5t-129.5 99.5t-76 137.5t-26.5 155.5q0 149 88 252t252 123q-127 34 -193 122t-66 209
q0 78 27 153t77 137.5t130.5 101t177.5 38.5h55q21 0 21 -20v-63q0 -9 -6 -15t-15 -6h-34q-41 0 -70 -108t-29 -232q0 -116 29.5 -194t89.5 -78h152q60 0 89 78t29 194q0 124 -28.5 232t-69.5 108z" />
    <glyph glyph-name="nine" unicode="9" horiz-adv-x="1298" 
d="M537 657h14q20 0 20 -20v-64q0 -20 -20 -20h-35q-115 0 -207.5 41.5t-149.5 111t-87.5 156t-30.5 180.5q0 95 30.5 184.5t87.5 164t150 120t207 45.5h37q20 0 20 -20v-63q0 -21 -20 -21h-16q-48 0 -73.5 -122t-25.5 -283q0 -158 26 -274t73 -116zM690 1452h-14
q-9 0 -15 6t-6 15v63q0 20 21 20h35q112 0 203 -45.5t151.5 -121t102 -178t59.5 -213.5t18 -230t-18 -230t-59.5 -213.5t-102 -178t-151.5 -121t-203 -45.5h-37q-21 0 -21 20v63q0 9 6 15t15 6h16q137 0 156 494q-64 -25 -137 -25h-35q-21 0 -21 20v64q0 20 21 20h14
q83 0 162 76v39q0 680 -160 680zM444 121q9 -3 42 -20t51 -17h14q20 0 20 -21v-63q0 -20 -20 -20h-35q-92 0 -180 34t-149.5 103.5t-61.5 156.5q0 82 57.5 139.5t139.5 57.5t139 -57.5t57 -139.5q0 -92 -74 -153z" />
    <glyph glyph-name="colon" unicode=":" horiz-adv-x="573" 
d="M98 885q0 82 57.5 139t139.5 57t139.5 -57t57.5 -139t-57.5 -139.5t-139.5 -57.5t-139.5 57.5t-57.5 139.5zM98 188q0 82 57.5 139.5t139.5 57.5t139.5 -57.5t57.5 -139.5t-57.5 -139t-139.5 -57t-139.5 57t-57.5 139z" />
    <glyph glyph-name="semicolon" unicode=";" horiz-adv-x="589" 
d="M104 885q0 82 57.5 139t139.5 57t139.5 -57t57.5 -139t-57.5 -139.5t-139.5 -57.5t-139.5 57.5t-57.5 139.5zM127 188q0 82 57.5 139.5t139.5 57.5t139 -57.5t57 -139.5q0 -99 -27 -190t-77 -164.5t-131 -117.5t-181 -44h-36q-9 0 -15 6t-6 15v63q0 9 6 15t15 6h16
q70 0 121.5 60t77.5 159q-67 14 -111.5 68t-44.5 124z" />
    <glyph glyph-name="less" unicode="&#x3c;" horiz-adv-x="923" 
d="M604 717q-31 -10 -63 -10q-25 0 -56 8l-67 26q-8 3 -8 11q0 16 20 26l375 207q1 0 2 1t2 1q7 0 11.5 -7t4.5 -15v-119q0 -14 -20 -21zM98 702q0 8 5 15.5t12 7.5q1 0 2 -1t2 -1l686 -270q20 -3 20 -21v-323q0 -21 -16 -21h-4l-686 270q-21 4 -21 21v323z" />
    <glyph glyph-name="equal" unicode="=" 
d="M121 432h751q21 0 21 -20v-64q0 -20 -21 -20h-751q-21 0 -21 20v64q0 20 21 20zM121 719h751q9 0 15 -6t6 -15v-63q0 -9 -6 -15t-15 -6h-751q-9 0 -15 6t-6 15v63q0 9 6 15t15 6z" />
    <glyph glyph-name="greater" unicode="&#x3e;" horiz-adv-x="923" 
d="M319 358q34 11 64 11q21 0 55 -9l68 -26q8 -3 8 -10q0 -17 -20 -27l-375 -207q-1 0 -2 -1t-2 -1q-7 0 -12 7.5t-5 15.5v118q0 14 21 21zM825 373q0 -8 -4.5 -15.5t-11.5 -7.5q-1 0 -2 1t-2 1l-686 271q-21 3 -21 20v324q0 8 5 14t12 6h4l686 -270q20 -3 20 -21v-323z" />
    <glyph glyph-name="question" unicode="?" horiz-adv-x="1243" 
d="M1153 1116q0 -69 -30.5 -127.5t-79.5 -98.5t-108 -75t-118.5 -66t-108.5 -61.5t-79.5 -70t-30.5 -85.5v-40q0 -21 -20 -21h-125q-9 0 -15 7t-6 18v36q0 83 19.5 151t50.5 114.5t69 87.5t76 79.5t69 79t50.5 97.5t19.5 125q0 64 -34.5 115t-85.5 51h-17q-20 0 -20 20v64
q0 20 20 20h37q125 0 232.5 -55t171 -152t63.5 -213zM319 188q0 82 57.5 139.5t139.5 57.5t139.5 -57.5t57.5 -139.5t-57.5 -139t-139.5 -57t-139.5 57t-57.5 139zM201 1407q123 129 291 129h34q21 0 21 -20v-64q0 -20 -21 -20h-14q-71 0 -144.5 -62t-120 -157t-46.5 -185
q0 -20 -21 -20h-63q-21 0 -21 20v488q0 20 21 20h63q21 0 21 -20v-109z" />
    <glyph glyph-name="at" unicode="@" horiz-adv-x="1939" 
d="M850 229h10q14 0 14 -14v-43q0 -6 -4 -11t-10 -5h-24q-97 0 -175.5 31t-127.5 83t-75 117t-26 135t26 135t75 117.5t127.5 83.5t175.5 31h26q6 0 10.5 -5.5t4.5 -11.5v-43q0 -14 -15 -14h-12q-65 0 -102 -88t-37 -207t36.5 -205t102.5 -86zM1049 1206h-15q-20 0 -20 21
v63q0 21 20 21h35q150 0 279.5 -42t219.5 -113t155 -162.5t95.5 -191t30.5 -198.5q0 -91 -22.5 -171.5t-65 -142.5t-110 -98t-152.5 -36h-37q-20 0 -20 20v64q0 20 20 20h17q57 0 99 46t61.5 120.5t19.5 167.5q0 83 -23.5 168t-73.5 165t-120 142t-172 99.5t-221 37.5z
M895 -121h14q21 0 21 -20v-64q0 -20 -21 -20h-35q-151 0 -280 43t-220 116.5t-155 172t-94.5 209t-30.5 227.5t30.5 227.5t94.5 209t155 172t220 116.5t280 43h37q9 0 15 -6t6 -15v-63q0 -9 -6 -15t-15 -6h-16q-147 0 -265.5 -57t-191.5 -152t-112 -212.5t-39 -245.5
q0 -127 38.5 -243t111.5 -210t192 -150.5t266 -56.5zM1128 340v297q-25 74 -73.5 126t-96.5 52h-10q-14 0 -14 14v43q0 6 4 11.5t10 5.5h25q87 0 155 -62v45q0 6 4.5 11.5t10.5 5.5h284q6 0 10.5 -5.5t4.5 -11.5v-43q0 -14 -15 -14h-43v-643q0 -6 -4 -11t-10 -5h-227
q-6 0 -10.5 5t-4.5 11v37q-72 -53 -155 -53h-27q-6 0 -10 5t-4 11v43q0 14 14 14h12q100 0 170 111z" />
    <glyph glyph-name="A" unicode="A" horiz-adv-x="1372" 
d="M461 412h219q13 0 20 -21l21 -63q0 -9 -6 -15t-15 -6h-260q-20 0 -20 21l20 63q7 21 21 21zM498 1432h-84q-21 0 -21 20v64q0 20 21 20h487q21 0 21 -20v-64q0 -20 -21 -20h-39l365 -1328h84q20 0 20 -20v-64q0 -20 -20 -20h-488q-20 0 -20 20v64q0 20 20 20h39zM317 0
h-282q-21 0 -21 20v64q0 20 21 20h84l301 1100q12 43 20 43q10 0 19 -30l45 -160q10 -38 10 -56q0 -25 -12 -63l-223 -834h38q21 0 21 -20v-64q0 -20 -21 -20z" />
    <glyph glyph-name="B" unicode="B" horiz-adv-x="1384" 
d="M664 1432h-35q-21 0 -21 20v64q0 20 21 20h239q98 0 178 -35.5t130 -94t77 -131t27 -149.5q0 -121 -65.5 -209t-192.5 -122q164 -20 252 -123t88 -252q0 -80 -26.5 -154t-76 -134t-130 -96t-179.5 -36h-323q-21 0 -21 20v64q0 20 21 20h118q59 0 106.5 27t77 72t45 101
t15.5 116q0 82 -26.5 152t-83.5 116.5t-134 46.5h-116q-9 0 -15 6t-6 15v63q0 9 6 15t15 6h35q117 0 180 83.5t63 200.5q0 123 -65.5 215.5t-177.5 92.5zM160 1432h-62q-20 0 -20 20v64q0 20 20 20h406q20 0 20 -20v-1496q0 -7 -1 -11t-5.5 -6.5t-13.5 -2.5h-406
q-20 0 -20 20v64q0 20 20 20h62v1328z" />
    <glyph glyph-name="C" unicode="C" horiz-adv-x="1337" 
d="M1190 188q-170 -208 -393 -208h-37q-21 0 -21 20v63q0 9 6 15t15 6h16q183 0 322 207q13 21 42 34t58 13q53 0 53 -43q0 -36 -61 -107zM623 84h14q20 0 20 -21v-63q0 -20 -20 -20h-35q-112 0 -207 45t-162 121.5t-114 178t-69.5 214t-22.5 229.5t22.5 229.5t69.5 214
t114 178t162 121.5t207 45h37q20 0 20 -20v-63q0 -21 -20 -21h-16q-63 0 -110 -104t-68 -257t-21 -327q0 -127 12.5 -246t36.5 -217t63 -157.5t87 -59.5zM1149 1393v123q0 20 20 20h64q20 0 20 -20v-488q0 -20 -20 -20h-64q-20 0 -20 20q0 90 -56 189.5t-144 167t-173 67.5
h-14q-9 0 -15 6t-6 15v63q0 20 21 20h35q185 0 352 -163z" />
    <glyph glyph-name="D" unicode="D" horiz-adv-x="1415" 
d="M643 1432h-14q-21 0 -21 20v64q0 20 21 20h137q120 0 222 -43t173.5 -116.5t122 -172t74.5 -209t24 -227.5t-24 -227.5t-74.5 -209t-122 -172t-173.5 -116.5t-222 -43h-139q-21 0 -21 20v64q0 20 21 20h16q83 0 150 56.5t109 151t64.5 212t22.5 244.5t-22.5 244.5
t-64.5 212t-109 151t-150 56.5zM160 1432h-62q-20 0 -20 20v64q0 20 20 20h406q20 0 20 -20v-1496q0 -20 -20 -20h-406q-20 0 -20 20v64q0 20 20 20h62v1328z" />
    <glyph glyph-name="E" unicode="E" horiz-adv-x="1251" 
d="M160 1432h-62q-20 0 -20 20v64q0 20 20 20h406q20 0 20 -20v-1496q0 -20 -20 -20h-406q-20 0 -20 20v64q0 20 20 20h62v1328zM858 1432h-231q-21 0 -21 20v64q0 20 21 20h516q20 0 20 -20v-287q0 -21 -20 -21h-99q-25 0 -40 21zM1143 0h-516q-21 0 -21 20v64q0 20 21 20
h231l146 203q15 21 40 21h99q20 0 20 -21v-287q0 -20 -20 -20zM735 696h-108q-9 0 -15 6t-6 15v63q0 9 6 15t15 6h108l146 203q14 20 41 20h36q21 0 21 -20v-510q0 -9 -6 -15t-15 -6h-36q-26 0 -41 21z" />
    <glyph glyph-name="F" unicode="F" horiz-adv-x="1230" 
d="M160 1432h-62q-20 0 -20 20v64q0 20 20 20h406q20 0 20 -20v-1412h62q20 0 20 -20v-64q0 -20 -20 -20h-488q-20 0 -20 20v64q0 20 20 20h62v1328zM858 1432h-231q-21 0 -21 20v64q0 20 21 20h516q20 0 20 -20v-287q0 -21 -20 -21h-99q-25 0 -40 21zM735 696h-108
q-9 0 -15 6t-6 15v63q0 9 6 15t15 6h108l146 203q14 20 41 20h36q21 0 21 -20v-510q0 -9 -6 -15t-15 -6h-36q-26 0 -41 21z" />
    <glyph glyph-name="G" unicode="G" horiz-adv-x="1355" 
d="M1188 188q-170 -208 -393 -208h-37q-21 0 -21 20v63q0 9 6 15t15 6h16q23 0 63.5 18t45.5 19v512h-62q-20 0 -20 20v64q0 20 20 20h488q20 0 20 -20v-64q0 -20 -20 -20h-62v-336v-2q0 -38 -59 -107zM621 84h14q20 0 20 -21v-63q0 -20 -20 -20h-35q-111 0 -206.5 45
t-162 121.5t-114 178t-70 214t-22.5 229.5t22.5 229.5t70 214t114 178t162 121.5t206.5 45h37q20 0 20 -20v-63q0 -21 -20 -21h-16q-63 0 -110 -104t-68 -257t-21 -327q0 -127 12.5 -246t36.5 -217t63 -157.5t87 -59.5zM1147 1391v125q0 20 20 20h64q20 0 20 -20v-488
q0 -20 -20 -20h-64q-20 0 -20 20q0 90 -56 189.5t-144 167t-173 67.5h-14q-9 0 -15 6t-6 15v63q0 20 21 20h35q183 0 352 -165z" />
    <glyph glyph-name="H" unicode="H" horiz-adv-x="1478" 
d="M627 801h219q20 0 20 -21v-63q0 -21 -20 -21h-219q-9 0 -15 6t-6 15v63q0 9 6 15t15 6zM524 1432v-1328h62q20 0 20 -20v-64q0 -20 -20 -20h-488q-20 0 -20 20v64q0 20 20 20h62v1328h-62q-20 0 -20 20v64q0 20 20 20h488q20 0 20 -20v-64q0 -20 -20 -20h-62zM1313 1432
v-1328h61q21 0 21 -20v-64q0 -20 -21 -20h-487q-21 0 -21 20v64q0 20 21 20h61v1328h-61q-21 0 -21 20v64q0 20 21 20h487q21 0 21 -20v-64q0 -20 -21 -20h-61z" />
    <glyph glyph-name="I" unicode="I" horiz-adv-x="690" 
d="M524 1432v-1328h62q20 0 20 -20v-64q0 -20 -20 -20h-488q-20 0 -20 20v64q0 20 20 20h62v1328h-62q-20 0 -20 20v64q0 20 20 20h488q20 0 20 -20v-64q0 -20 -20 -20h-62z" />
    <glyph glyph-name="J" unicode="J" horiz-adv-x="1208" 
d="M498 84q62 0 108 58t67 142t21 177v971h-61q-21 0 -21 20v64q0 20 21 20h487q21 0 21 -20v-64q0 -20 -21 -20h-61v-971q0 -88 -35 -172t-100 -154t-170.5 -112.5t-235.5 -42.5h-35q-20 0 -20 20v63q0 21 20 21h15zM170 274q26 -82 70.5 -136t103.5 -54h16q9 0 15 -6
t6 -15v-63q0 -20 -21 -20h-36q-95 0 -165 74t-102 182t-32 229q0 82 57 139.5t139 57.5t139.5 -57.5t57.5 -139.5t-57.5 -139.5t-139.5 -57.5q-27 0 -51 6z" />
    <glyph glyph-name="K" unicode="K" horiz-adv-x="1441" 
d="M524 1432v-1328h62q20 0 20 -20v-64q0 -20 -20 -20h-488q-20 0 -20 20v64q0 20 20 20h62v1328h-62q-20 0 -20 20v64q0 20 20 20h488q20 0 20 -20v-64q0 -20 -20 -20h-62zM1374 0h-487q-21 0 -21 20v64q0 20 21 20h16l-307 566v248q0 10 7 17t18 7h114l283 490h-12
q-21 0 -21 20v64q0 20 21 20h282q21 0 21 -20v-64q0 -20 -21 -20h-110l-347 -592l433 -736h110q21 0 21 -20v-64q0 -20 -21 -20z" />
    <glyph glyph-name="L" unicode="L" horiz-adv-x="1200" 
d="M524 1432v-1412q0 -20 -20 -20h-406q-20 0 -20 20v64q0 20 20 20h62v1328h-62q-20 0 -20 20v64q0 20 20 20h488q20 0 20 -20v-64q0 -20 -20 -20h-62zM1122 0h-495q-21 0 -21 20v64q0 20 21 20h211l145 203q15 21 41 21h98q9 0 15 -6t6 -15v-287q0 -20 -21 -20z" />
    <glyph glyph-name="M" unicode="M" horiz-adv-x="1816" 
d="M1210 1163v-229q0 -70 -18 -123l-258 -791q-7 -20 -21 -20h-98q-99 0 -106 20l-514 1412h-97q-20 0 -20 20v64q0 20 20 20h418q25 0 33 -20l395 -1039l225 690q6 18 14.5 29.5t14.5 11.5q12 0 12 -45zM98 104h62v1166q0 20 8 20q10 0 20 -24l101 -281q10 -27 10 -84v-797
h61q21 0 21 -20v-64q0 -20 -21 -20h-262q-20 0 -20 20v64q0 20 20 20zM1307 1536h405q21 0 21 -20v-64q0 -20 -21 -20h-61v-1328h61q21 0 21 -20v-64q0 -20 -21 -20h-487q-21 0 -21 20v64q0 20 21 20h61v1412q0 20 21 20z" />
    <glyph glyph-name="N" unicode="N" horiz-adv-x="1370" 
d="M1221 385v-365q0 -20 -21 -20h-164q-12 0 -24 6t-17 14l-784 1412h-113q-20 0 -20 20v64q0 20 20 20h459q21 0 33 -20zM160 1270q0 20 8 20q10 0 20 -24l101 -199q10 -20 10 -84v-879h61q21 0 21 -20v-64q0 -20 -21 -20h-262q-20 0 -20 20v64q0 20 20 20h62v1166z
M1221 614q0 -20 -9 -20q-10 0 -20 24l-100 199q-11 22 -11 84v531h-61q-21 0 -21 20v64q0 20 21 20h262q21 0 21 -20v-64q0 -20 -21 -20h-61v-818z" />
    <glyph glyph-name="O" unicode="O" horiz-adv-x="1406" 
d="M776 1452h-14q-9 0 -15 6t-6 15v63q0 20 21 20h35q139 0 251.5 -68.5t182 -181.5t106.5 -251.5t37 -286.5t-37 -286.5t-106.5 -251.5t-182 -181.5t-251.5 -68.5h-37q-21 0 -21 20v63q0 9 6 15t15 6h16q48 0 87 60t63.5 159t37.5 220t13 249q0 126 -13 245.5t-37.5 217.5
t-63.5 157.5t-87 59.5zM623 84h14q20 0 20 -21v-63q0 -20 -20 -20h-35q-112 0 -207 45t-162 121.5t-114 178t-69.5 214t-22.5 229.5t22.5 229.5t69.5 214t114 178t162 121.5t207 45h37q20 0 20 -20v-63q0 -21 -20 -21h-16q-63 0 -110 -104t-68 -257t-21 -327
q0 -127 12.5 -246t36.5 -217t63 -157.5t87 -59.5z" />
    <glyph glyph-name="P" unicode="P" horiz-adv-x="1304" 
d="M664 1432h-35q-21 0 -21 20v64q0 20 21 20h239q99 0 179.5 -36t130 -96t76 -134t26.5 -154t-26.5 -154t-76 -134t-130 -96t-179.5 -36h-241q-9 0 -15 6t-6 15v63q0 9 6 15t15 6h37q77 0 134 46.5t83 116.5t26 152t-26 152t-83 117t-134 47zM160 1432h-62q-20 0 -20 20v64
q0 20 20 20h406q20 0 20 -20v-1412h62q20 0 20 -20v-64q0 -20 -20 -20h-488q-20 0 -20 20v64q0 20 20 20h62v1328z" />
    <glyph glyph-name="Q" unicode="Q" horiz-adv-x="1404" 
d="M774 1452h-14q-9 0 -15 6t-6 15v63q0 20 21 20h35q139 0 251.5 -68.5t182 -181.5t106.5 -251.5t37 -286.5q0 -135 -31.5 -264.5t-90.5 -239t-154 -184.5t-213 -94l161 -95q5 -3 13 -18t8 -23v-98q-9 -20 -21 -20h-286q-21 8 -21 20v311q0 9 6 15t15 6h16q48 0 87 60
t63.5 159t37.5 220t13 249q0 126 -13 245.5t-37.5 217.5t-63.5 157.5t-87 59.5zM621 84h14q20 0 20 -21v-63q0 -20 -20 -20h-35q-112 0 -207 45t-162 121.5t-114 178t-69.5 214t-22.5 229.5t22.5 229.5t69.5 214t114 178t162 121.5t207 45h37q20 0 20 -20v-63q0 -21 -20 -21
h-16q-63 0 -110 -104t-68 -257t-21 -327q0 -127 12.5 -246t36.5 -217t63 -157.5t87 -59.5z" />
    <glyph glyph-name="R" unicode="R" horiz-adv-x="1439" 
d="M664 1432h-35q-21 0 -21 20v64q0 20 21 20h239q98 0 178 -35.5t130 -94t77 -131t27 -149.5q0 -122 -66.5 -210t-195.5 -121q136 -21 207 -122.5t71 -252.5q0 -127 16 -221.5t44 -94.5h16q21 0 21 -20v-64q0 -20 -21 -20h-221q-73 0 -126 62.5t-77 155.5t-24 202
q0 84 -19 154t-60.5 115.5t-99.5 45.5h-116q-9 0 -15 6t-6 15v63q0 9 6 15t15 6h35q117 0 180 83.5t63 200.5q0 123 -65.5 215.5t-177.5 92.5zM160 1432h-62q-20 0 -20 20v64q0 20 20 20h406q20 0 20 -20v-1412h62q20 0 20 -20v-64q0 -7 -1 -11t-5.5 -6.5t-13.5 -2.5h-488
q-20 0 -20 20v64q0 20 20 20h62v1328z" />
    <glyph glyph-name="S" unicode="S" horiz-adv-x="1271" 
d="M84 1081q0 106 70 216t189 184.5t247 74.5h37q20 0 20 -20v-63q0 -21 -20 -21h-17q-60 0 -107.5 -77.5t-47.5 -155.5q0 -66 26.5 -118.5t71.5 -87t103.5 -63.5t123 -53t129 -50t123 -60.5t103.5 -78t71.5 -109.5t26.5 -148q0 -78 -45 -162.5t-118.5 -152.5t-176 -112
t-207.5 -44h-37q-20 0 -20 20v63q0 21 20 21h17q79 0 137.5 73t58.5 150q0 58 -26.5 105t-71.5 80t-103.5 61.5t-123 54.5t-129 54.5t-123 66.5t-103.5 84.5t-71.5 115t-26.5 152.5zM1075 1407v109q0 20 21 20h63q21 0 21 -20v-488q0 -20 -21 -20h-63q-21 0 -21 20
q0 90 -46.5 189.5t-120 167t-144.5 67.5h-14q-9 0 -15 6t-6 15v63q0 20 21 20h34q149 0 291 -149zM160 139v-119q0 -20 -21 -20h-63q-21 0 -21 20v488q0 20 21 20h63q21 0 21 -20q0 -90 52.5 -189.5t136 -167t163.5 -67.5h14q9 0 15 -6t6 -15v-63q0 -20 -21 -20h-34
q-173 0 -332 159z" />
    <glyph glyph-name="T" unicode="T" horiz-adv-x="1400" 
d="M535 1536h323q21 0 21 -20v-1412h61q21 0 21 -20v-64q0 -20 -21 -20h-487q-21 0 -21 20v64q0 20 21 20h61v1412q0 20 21 20zM1028 1432h-47q-20 0 -20 20v64q0 20 20 20h332q20 0 20 -20v-287q0 -21 -20 -21h-99q-25 0 -40 21zM80 1536h332q20 0 20 -20v-64
q0 -20 -20 -20h-41h-6l-146 -203q-15 -21 -41 -21h-98q-9 0 -15 6t-6 15v287q0 20 21 20z" />
    <glyph glyph-name="U" unicode="U" horiz-adv-x="1341" 
d="M698 84h15q20 0 20 -21v-63q0 -20 -20 -20h-35q-130 0 -235.5 42.5t-170.5 112.5t-100 154t-35 172v971h-61q-21 0 -21 20v64q0 20 21 20h487q21 0 21 -20v-64q0 -20 -21 -20h-61v-971q0 -93 21 -177t67 -142t108 -58zM1053 465v967h-62q-20 0 -20 20v64q0 20 20 20h262
q21 0 21 -20v-64q0 -20 -21 -20h-61v-967q0 -119 -37.5 -228.5t-112.5 -183t-170 -73.5h-36q-21 0 -21 20v63q0 9 6 15t15 6h16q63 0 110.5 58.5t69 143.5t21.5 179z" />
    <glyph glyph-name="V" unicode="V" horiz-adv-x="1378" 
d="M860 0h-323q-21 0 -21 20l-387 1412h-84q-20 0 -20 20v64q0 20 20 20h487q21 0 21 -20v-64q0 -20 -21 -20h-38l387 -1412q0 -20 -21 -20zM1038 1536h283q20 0 20 -20v-64q0 -20 -20 -20h-84l-301 -1100q-12 -43 -21 -43t-18 30l-45 160q-10 38 -10 56q0 25 12 63l223 834
h-39q-20 0 -20 20v64q0 20 20 20z" />
    <glyph glyph-name="W" unicode="W" horiz-adv-x="1986" 
d="M780 0h-323q-21 0 -21 20l-291 1412h-77q-21 0 -21 20v64q0 20 21 20h487q20 0 20 -20v-64q0 -20 -20 -20h-45l291 -1412q0 -20 -21 -20zM1528 0h-324q-20 0 -20 20l-291 1412h-78q-20 0 -20 20v64q0 20 20 20h528q21 0 21 -20v-64q0 -20 -21 -20h-86l291 -1412
q0 -20 -20 -20zM864 332q-12 -43 -20 -43q-10 0 -19 30l-32 160q-11 42 -11 56q0 5 13 63l65 297q13 43 21 43q9 0 18 -31l33 -159q10 -38 10 -56q0 -26 -12 -63zM1624 1536h283q20 0 20 -20v-64q0 -20 -20 -20h-78l-205 -1100q-12 -43 -20 -43q-10 0 -19 30l-45 160
q-10 38 -10 56q0 25 12 63l131 834h-49q-20 0 -20 20v64q0 20 20 20z" />
    <glyph glyph-name="X" unicode="X" horiz-adv-x="1382" 
d="M1323 0h-487q-21 0 -21 20v64q0 20 21 20h16l-698 1328h-107q-20 0 -20 20v64q0 20 20 20h488q20 0 20 -20v-64q0 -20 -20 -20h-17l699 -1328h106q20 0 20 -20v-64q0 -20 -20 -20zM156 104l297 527q8 17 20.5 21t18.5 -9l24 -57q14 -32 14 -58q0 -30 -16 -61l-199 -363
h15q20 0 20 -20v-64q0 -20 -20 -20h-283q-20 0 -20 20v64q0 20 20 20h109zM1214 1432l-296 -527q-8 -17 -20.5 -21t-18.5 9l-25 57q-14 32 -14 58q0 30 16 61l199 363h-15q-20 0 -20 20v64q0 20 20 20h283q20 0 20 -20v-64q0 -20 -20 -20h-109z" />
    <glyph glyph-name="Y" unicode="Y" horiz-adv-x="1361" 
d="M1028 1536h283q20 0 20 -20v-64q0 -20 -20 -20h-105l-280 -547q-8 -17 -20.5 -21.5t-18.5 8.5l-25 58q-14 32 -14 57q0 31 16 62l185 383h-21q-20 0 -20 20v64q0 20 20 20zM35 1536h487q21 0 21 -20v-64q0 -20 -21 -20h-18l366 -715v-2v-611h62q20 0 20 -20v-64
q0 -20 -20 -20h-488q-20 0 -20 20v64q0 20 20 20h62v611v2l-367 715h-104q-21 0 -21 20v64q0 20 21 20z" />
    <glyph glyph-name="Z" unicode="Z" horiz-adv-x="1226" 
d="M426 0h-354q-21 0 -21 20l721 1496q0 20 21 20h354q20 0 20 -20l-721 -1496q0 -20 -20 -20zM1106 0h-516q-21 0 -21 20v64q0 20 21 20h231l146 203q15 21 41 21h98q20 0 20 -21v-287q0 -20 -20 -20zM92 1516q0 20 21 20h508q20 0 20 -20v-64q0 -20 -20 -20h-224
l-145 -203q-15 -21 -41 -21h-98q-9 0 -15 6t-6 15v287z" />
    <glyph glyph-name="bracketleft" unicode="[" horiz-adv-x="636" 
d="M526 1597q21 0 21 -20v-64q0 -20 -21 -20h-254v-1716h254q9 0 15 -6t6 -15v-63q0 -9 -6 -15t-15 -6h-403q-9 0 -15 6t-6 15v1884q0 20 21 20h403z" />
    <glyph glyph-name="backslash" unicode="\" horiz-adv-x="1034" 
d="M811 0q-20 0 -20 20l-721 1496q0 20 20 20h129q21 0 21 -20l721 -1496q0 -20 -21 -20h-129z" />
    <glyph glyph-name="bracketright" unicode="]" horiz-adv-x="636" 
d="M111 -328q-9 0 -15 6t-6 15v63q0 9 6 15t15 6h254v1716h-254q-21 0 -21 20v64q0 20 21 20h403q21 0 21 -20v-1884q0 -9 -6 -15t-15 -6h-403z" />
    <glyph glyph-name="asciicircum" unicode="^" horiz-adv-x="1069" 
d="M352 1030l-108 -201q-7 -20 -21 -20h-119q-20 0 -20 16v4l207 375q11 21 26 21q10 0 13 -8l24 -68q11 -42 11 -55q0 -23 -13 -64zM367 1536h323q18 0 21 -20l270 -687v-4q0 -16 -20 -16h-324q-18 0 -21 20l-270 687v4q0 16 21 16z" />
    <glyph glyph-name="underscore" unicode="_" 
d="M121 2h751q21 0 21 -20v-64q0 -20 -21 -20h-751q-21 0 -21 20v64q0 20 21 20z" />
    <glyph glyph-name="grave" unicode="`" horiz-adv-x="763" 
d="M82 1536h324q17 0 20 -20l270 -687q1 -9 -5 -14.5t-15 -5.5h-180q-18 0 -21 20l-414 687q-1 9 5.5 14.5t15.5 5.5z" />
    <glyph glyph-name="a" unicode="a" horiz-adv-x="1372" 
d="M461 412h219q13 0 20 -21l21 -63q0 -9 -6 -15t-15 -6h-260q-20 0 -20 21l20 63q7 21 21 21zM498 1432h-84q-21 0 -21 20v64q0 20 21 20h487q21 0 21 -20v-64q0 -20 -21 -20h-39l365 -1328h84q20 0 20 -20v-64q0 -20 -20 -20h-488q-20 0 -20 20v64q0 20 20 20h39zM317 0
h-282q-21 0 -21 20v64q0 20 21 20h84l301 1100q12 43 20 43q10 0 19 -30l45 -160q10 -38 10 -56q0 -25 -12 -63l-223 -834h38q21 0 21 -20v-64q0 -20 -21 -20z" />
    <glyph glyph-name="b" unicode="b" horiz-adv-x="1384" 
d="M664 1432h-35q-21 0 -21 20v64q0 20 21 20h239q98 0 178 -35.5t130 -94t77 -131t27 -149.5q0 -121 -65.5 -209t-192.5 -122q164 -20 252 -123t88 -252q0 -80 -26.5 -154t-76 -134t-130 -96t-179.5 -36h-323q-21 0 -21 20v64q0 20 21 20h118q59 0 106.5 27t77 72t45 101
t15.5 116q0 82 -26.5 152t-83.5 116.5t-134 46.5h-116q-9 0 -15 6t-6 15v63q0 9 6 15t15 6h35q117 0 180 83.5t63 200.5q0 123 -65.5 215.5t-177.5 92.5zM160 1432h-62q-20 0 -20 20v64q0 20 20 20h406q20 0 20 -20v-1496q0 -7 -1 -11t-5.5 -6.5t-13.5 -2.5h-406
q-20 0 -20 20v64q0 20 20 20h62v1328z" />
    <glyph glyph-name="c" unicode="c" horiz-adv-x="1337" 
d="M1190 188q-170 -208 -393 -208h-37q-21 0 -21 20v63q0 9 6 15t15 6h16q183 0 322 207q13 21 42 34t58 13q53 0 53 -43q0 -36 -61 -107zM623 84h14q20 0 20 -21v-63q0 -20 -20 -20h-35q-112 0 -207 45t-162 121.5t-114 178t-69.5 214t-22.5 229.5t22.5 229.5t69.5 214
t114 178t162 121.5t207 45h37q20 0 20 -20v-63q0 -21 -20 -21h-16q-63 0 -110 -104t-68 -257t-21 -327q0 -127 12.5 -246t36.5 -217t63 -157.5t87 -59.5zM1149 1393v123q0 20 20 20h64q20 0 20 -20v-488q0 -20 -20 -20h-64q-20 0 -20 20q0 90 -56 189.5t-144 167t-173 67.5
h-14q-9 0 -15 6t-6 15v63q0 20 21 20h35q185 0 352 -163z" />
    <glyph glyph-name="d" unicode="d" horiz-adv-x="1415" 
d="M643 1432h-14q-21 0 -21 20v64q0 20 21 20h137q120 0 222 -43t173.5 -116.5t122 -172t74.5 -209t24 -227.5t-24 -227.5t-74.5 -209t-122 -172t-173.5 -116.5t-222 -43h-139q-21 0 -21 20v64q0 20 21 20h16q83 0 150 56.5t109 151t64.5 212t22.5 244.5t-22.5 244.5
t-64.5 212t-109 151t-150 56.5zM160 1432h-62q-20 0 -20 20v64q0 20 20 20h406q20 0 20 -20v-1496q0 -20 -20 -20h-406q-20 0 -20 20v64q0 20 20 20h62v1328z" />
    <glyph glyph-name="e" unicode="e" horiz-adv-x="1251" 
d="M160 1432h-62q-20 0 -20 20v64q0 20 20 20h406q20 0 20 -20v-1496q0 -20 -20 -20h-406q-20 0 -20 20v64q0 20 20 20h62v1328zM858 1432h-231q-21 0 -21 20v64q0 20 21 20h516q20 0 20 -20v-287q0 -21 -20 -21h-99q-25 0 -40 21zM1143 0h-516q-21 0 -21 20v64q0 20 21 20
h231l146 203q15 21 40 21h99q20 0 20 -21v-287q0 -20 -20 -20zM735 696h-108q-9 0 -15 6t-6 15v63q0 9 6 15t15 6h108l146 203q14 20 41 20h36q21 0 21 -20v-510q0 -9 -6 -15t-15 -6h-36q-26 0 -41 21z" />
    <glyph glyph-name="f" unicode="f" horiz-adv-x="1230" 
d="M160 1432h-62q-20 0 -20 20v64q0 20 20 20h406q20 0 20 -20v-1412h62q20 0 20 -20v-64q0 -20 -20 -20h-488q-20 0 -20 20v64q0 20 20 20h62v1328zM858 1432h-231q-21 0 -21 20v64q0 20 21 20h516q20 0 20 -20v-287q0 -21 -20 -21h-99q-25 0 -40 21zM735 696h-108
q-9 0 -15 6t-6 15v63q0 9 6 15t15 6h108l146 203q14 20 41 20h36q21 0 21 -20v-510q0 -9 -6 -15t-15 -6h-36q-26 0 -41 21z" />
    <glyph glyph-name="g" unicode="g" horiz-adv-x="1355" 
d="M1188 188q-170 -208 -393 -208h-37q-21 0 -21 20v63q0 9 6 15t15 6h16q23 0 63.5 18t45.5 19v512h-62q-20 0 -20 20v64q0 20 20 20h488q20 0 20 -20v-64q0 -20 -20 -20h-62v-336v-2q0 -38 -59 -107zM621 84h14q20 0 20 -21v-63q0 -20 -20 -20h-35q-111 0 -206.5 45
t-162 121.5t-114 178t-70 214t-22.5 229.5t22.5 229.5t70 214t114 178t162 121.5t206.5 45h37q20 0 20 -20v-63q0 -21 -20 -21h-16q-63 0 -110 -104t-68 -257t-21 -327q0 -127 12.5 -246t36.5 -217t63 -157.5t87 -59.5zM1147 1391v125q0 20 20 20h64q20 0 20 -20v-488
q0 -20 -20 -20h-64q-20 0 -20 20q0 90 -56 189.5t-144 167t-173 67.5h-14q-9 0 -15 6t-6 15v63q0 20 21 20h35q183 0 352 -165z" />
    <glyph glyph-name="h" unicode="h" horiz-adv-x="1478" 
d="M627 801h219q20 0 20 -21v-63q0 -21 -20 -21h-219q-9 0 -15 6t-6 15v63q0 9 6 15t15 6zM524 1432v-1328h62q20 0 20 -20v-64q0 -20 -20 -20h-488q-20 0 -20 20v64q0 20 20 20h62v1328h-62q-20 0 -20 20v64q0 20 20 20h488q20 0 20 -20v-64q0 -20 -20 -20h-62zM1313 1432
v-1328h61q21 0 21 -20v-64q0 -20 -21 -20h-487q-21 0 -21 20v64q0 20 21 20h61v1328h-61q-21 0 -21 20v64q0 20 21 20h487q21 0 21 -20v-64q0 -20 -21 -20h-61z" />
    <glyph glyph-name="i" unicode="i" horiz-adv-x="690" 
d="M524 1432v-1328h62q20 0 20 -20v-64q0 -20 -20 -20h-488q-20 0 -20 20v64q0 20 20 20h62v1328h-62q-20 0 -20 20v64q0 20 20 20h488q20 0 20 -20v-64q0 -20 -20 -20h-62z" />
    <glyph glyph-name="j" unicode="j" horiz-adv-x="1208" 
d="M498 84q62 0 108 58t67 142t21 177v971h-61q-21 0 -21 20v64q0 20 21 20h487q21 0 21 -20v-64q0 -20 -21 -20h-61v-971q0 -88 -35 -172t-100 -154t-170.5 -112.5t-235.5 -42.5h-35q-20 0 -20 20v63q0 21 20 21h15zM170 274q26 -82 70.5 -136t103.5 -54h16q9 0 15 -6
t6 -15v-63q0 -20 -21 -20h-36q-95 0 -165 74t-102 182t-32 229q0 82 57 139.5t139 57.5t139.5 -57.5t57.5 -139.5t-57.5 -139.5t-139.5 -57.5q-27 0 -51 6z" />
    <glyph glyph-name="k" unicode="k" horiz-adv-x="1441" 
d="M524 1432v-1328h62q20 0 20 -20v-64q0 -20 -20 -20h-488q-20 0 -20 20v64q0 20 20 20h62v1328h-62q-20 0 -20 20v64q0 20 20 20h488q20 0 20 -20v-64q0 -20 -20 -20h-62zM1374 0h-487q-21 0 -21 20v64q0 20 21 20h16l-307 566v248q0 10 7 17t18 7h114l283 490h-12
q-21 0 -21 20v64q0 20 21 20h282q21 0 21 -20v-64q0 -20 -21 -20h-110l-347 -592l433 -736h110q21 0 21 -20v-64q0 -20 -21 -20z" />
    <glyph glyph-name="l" unicode="l" horiz-adv-x="1200" 
d="M524 1432v-1412q0 -20 -20 -20h-406q-20 0 -20 20v64q0 20 20 20h62v1328h-62q-20 0 -20 20v64q0 20 20 20h488q20 0 20 -20v-64q0 -20 -20 -20h-62zM1122 0h-495q-21 0 -21 20v64q0 20 21 20h211l145 203q15 21 41 21h98q9 0 15 -6t6 -15v-287q0 -20 -21 -20z" />
    <glyph glyph-name="m" unicode="m" horiz-adv-x="1816" 
d="M1210 1163v-229q0 -70 -18 -123l-258 -791q-7 -20 -21 -20h-98q-99 0 -106 20l-514 1412h-97q-20 0 -20 20v64q0 20 20 20h418q25 0 33 -20l395 -1039l225 690q6 18 14.5 29.5t14.5 11.5q12 0 12 -45zM98 104h62v1166q0 20 8 20q10 0 20 -24l101 -281q10 -27 10 -84v-797
h61q21 0 21 -20v-64q0 -20 -21 -20h-262q-20 0 -20 20v64q0 20 20 20zM1307 1536h405q21 0 21 -20v-64q0 -20 -21 -20h-61v-1328h61q21 0 21 -20v-64q0 -20 -21 -20h-487q-21 0 -21 20v64q0 20 21 20h61v1412q0 20 21 20z" />
    <glyph glyph-name="n" unicode="n" horiz-adv-x="1370" 
d="M1221 385v-365q0 -20 -21 -20h-164q-12 0 -24 6t-17 14l-784 1412h-113q-20 0 -20 20v64q0 20 20 20h459q21 0 33 -20zM160 1270q0 20 8 20q10 0 20 -24l101 -199q10 -20 10 -84v-879h61q21 0 21 -20v-64q0 -20 -21 -20h-262q-20 0 -20 20v64q0 20 20 20h62v1166z
M1221 614q0 -20 -9 -20q-10 0 -20 24l-100 199q-11 22 -11 84v531h-61q-21 0 -21 20v64q0 20 21 20h262q21 0 21 -20v-64q0 -20 -21 -20h-61v-818z" />
    <glyph glyph-name="o" unicode="o" horiz-adv-x="1406" 
d="M776 1452h-14q-9 0 -15 6t-6 15v63q0 20 21 20h35q139 0 251.5 -68.5t182 -181.5t106.5 -251.5t37 -286.5t-37 -286.5t-106.5 -251.5t-182 -181.5t-251.5 -68.5h-37q-21 0 -21 20v63q0 9 6 15t15 6h16q48 0 87 60t63.5 159t37.5 220t13 249q0 126 -13 245.5t-37.5 217.5
t-63.5 157.5t-87 59.5zM623 84h14q20 0 20 -21v-63q0 -20 -20 -20h-35q-112 0 -207 45t-162 121.5t-114 178t-69.5 214t-22.5 229.5t22.5 229.5t69.5 214t114 178t162 121.5t207 45h37q20 0 20 -20v-63q0 -21 -20 -21h-16q-63 0 -110 -104t-68 -257t-21 -327
q0 -127 12.5 -246t36.5 -217t63 -157.5t87 -59.5z" />
    <glyph glyph-name="p" unicode="p" horiz-adv-x="1304" 
d="M664 1432h-35q-21 0 -21 20v64q0 20 21 20h239q99 0 179.5 -36t130 -96t76 -134t26.5 -154t-26.5 -154t-76 -134t-130 -96t-179.5 -36h-241q-9 0 -15 6t-6 15v63q0 9 6 15t15 6h37q77 0 134 46.5t83 116.5t26 152t-26 152t-83 117t-134 47zM160 1432h-62q-20 0 -20 20v64
q0 20 20 20h406q20 0 20 -20v-1412h62q20 0 20 -20v-64q0 -20 -20 -20h-488q-20 0 -20 20v64q0 20 20 20h62v1328z" />
    <glyph glyph-name="q" unicode="q" horiz-adv-x="1404" 
d="M774 1452h-14q-9 0 -15 6t-6 15v63q0 20 21 20h35q139 0 251.5 -68.5t182 -181.5t106.5 -251.5t37 -286.5q0 -135 -31.5 -264.5t-90.5 -239t-154 -184.5t-213 -94l161 -95q5 -3 13 -18t8 -23v-98q-9 -20 -21 -20h-286q-21 8 -21 20v311q0 9 6 15t15 6h16q48 0 87 60
t63.5 159t37.5 220t13 249q0 126 -13 245.5t-37.5 217.5t-63.5 157.5t-87 59.5zM621 84h14q20 0 20 -21v-63q0 -20 -20 -20h-35q-112 0 -207 45t-162 121.5t-114 178t-69.5 214t-22.5 229.5t22.5 229.5t69.5 214t114 178t162 121.5t207 45h37q20 0 20 -20v-63q0 -21 -20 -21
h-16q-63 0 -110 -104t-68 -257t-21 -327q0 -127 12.5 -246t36.5 -217t63 -157.5t87 -59.5z" />
    <glyph glyph-name="r" unicode="r" horiz-adv-x="1439" 
d="M664 1432h-35q-21 0 -21 20v64q0 20 21 20h239q98 0 178 -35.5t130 -94t77 -131t27 -149.5q0 -122 -66.5 -210t-195.5 -121q136 -21 207 -122.5t71 -252.5q0 -127 16 -221.5t44 -94.5h16q21 0 21 -20v-64q0 -20 -21 -20h-221q-73 0 -126 62.5t-77 155.5t-24 202
q0 84 -19 154t-60.5 115.5t-99.5 45.5h-116q-9 0 -15 6t-6 15v63q0 9 6 15t15 6h35q117 0 180 83.5t63 200.5q0 123 -65.5 215.5t-177.5 92.5zM160 1432h-62q-20 0 -20 20v64q0 20 20 20h406q20 0 20 -20v-1412h62q20 0 20 -20v-64q0 -7 -1 -11t-5.5 -6.5t-13.5 -2.5h-488
q-20 0 -20 20v64q0 20 20 20h62v1328z" />
    <glyph glyph-name="s" unicode="s" horiz-adv-x="1271" 
d="M84 1081q0 106 70 216t189 184.5t247 74.5h37q20 0 20 -20v-63q0 -21 -20 -21h-17q-60 0 -107.5 -77.5t-47.5 -155.5q0 -66 26.5 -118.5t71.5 -87t103.5 -63.5t123 -53t129 -50t123 -60.5t103.5 -78t71.5 -109.5t26.5 -148q0 -78 -45 -162.5t-118.5 -152.5t-176 -112
t-207.5 -44h-37q-20 0 -20 20v63q0 21 20 21h17q79 0 137.5 73t58.5 150q0 58 -26.5 105t-71.5 80t-103.5 61.5t-123 54.5t-129 54.5t-123 66.5t-103.5 84.5t-71.5 115t-26.5 152.5zM1075 1407v109q0 20 21 20h63q21 0 21 -20v-488q0 -20 -21 -20h-63q-21 0 -21 20
q0 90 -46.5 189.5t-120 167t-144.5 67.5h-14q-9 0 -15 6t-6 15v63q0 20 21 20h34q149 0 291 -149zM160 139v-119q0 -20 -21 -20h-63q-21 0 -21 20v488q0 20 21 20h63q21 0 21 -20q0 -90 52.5 -189.5t136 -167t163.5 -67.5h14q9 0 15 -6t6 -15v-63q0 -20 -21 -20h-34
q-173 0 -332 159z" />
    <glyph glyph-name="t" unicode="t" horiz-adv-x="1400" 
d="M535 1536h323q21 0 21 -20v-1412h61q21 0 21 -20v-64q0 -20 -21 -20h-487q-21 0 -21 20v64q0 20 21 20h61v1412q0 20 21 20zM1028 1432h-47q-20 0 -20 20v64q0 20 20 20h332q20 0 20 -20v-287q0 -21 -20 -21h-99q-25 0 -40 21zM80 1536h332q20 0 20 -20v-64
q0 -20 -20 -20h-41h-6l-146 -203q-15 -21 -41 -21h-98q-9 0 -15 6t-6 15v287q0 20 21 20z" />
    <glyph glyph-name="u" unicode="u" horiz-adv-x="1341" 
d="M698 84h15q20 0 20 -21v-63q0 -20 -20 -20h-35q-130 0 -235.5 42.5t-170.5 112.5t-100 154t-35 172v971h-61q-21 0 -21 20v64q0 20 21 20h487q21 0 21 -20v-64q0 -20 -21 -20h-61v-971q0 -93 21 -177t67 -142t108 -58zM1053 465v967h-62q-20 0 -20 20v64q0 20 20 20h262
q21 0 21 -20v-64q0 -20 -21 -20h-61v-967q0 -119 -37.5 -228.5t-112.5 -183t-170 -73.5h-36q-21 0 -21 20v63q0 9 6 15t15 6h16q63 0 110.5 58.5t69 143.5t21.5 179z" />
    <glyph glyph-name="v" unicode="v" horiz-adv-x="1378" 
d="M860 0h-323q-21 0 -21 20l-387 1412h-84q-20 0 -20 20v64q0 20 20 20h487q21 0 21 -20v-64q0 -20 -21 -20h-38l387 -1412q0 -20 -21 -20zM1038 1536h283q20 0 20 -20v-64q0 -20 -20 -20h-84l-301 -1100q-12 -43 -21 -43t-18 30l-45 160q-10 38 -10 56q0 25 12 63l223 834
h-39q-20 0 -20 20v64q0 20 20 20z" />
    <glyph glyph-name="w" unicode="w" horiz-adv-x="1986" 
d="M780 0h-323q-21 0 -21 20l-291 1412h-77q-21 0 -21 20v64q0 20 21 20h487q20 0 20 -20v-64q0 -20 -20 -20h-45l291 -1412q0 -20 -21 -20zM1528 0h-324q-20 0 -20 20l-291 1412h-78q-20 0 -20 20v64q0 20 20 20h528q21 0 21 -20v-64q0 -20 -21 -20h-86l291 -1412
q0 -20 -20 -20zM864 332q-12 -43 -20 -43q-10 0 -19 30l-32 160q-11 42 -11 56q0 5 13 63l65 297q13 43 21 43q9 0 18 -31l33 -159q10 -38 10 -56q0 -26 -12 -63zM1624 1536h283q20 0 20 -20v-64q0 -20 -20 -20h-78l-205 -1100q-12 -43 -20 -43q-10 0 -19 30l-45 160
q-10 38 -10 56q0 25 12 63l131 834h-49q-20 0 -20 20v64q0 20 20 20z" />
    <glyph glyph-name="x" unicode="x" horiz-adv-x="1382" 
d="M1323 0h-487q-21 0 -21 20v64q0 20 21 20h16l-698 1328h-107q-20 0 -20 20v64q0 20 20 20h488q20 0 20 -20v-64q0 -20 -20 -20h-17l699 -1328h106q20 0 20 -20v-64q0 -20 -20 -20zM156 104l297 527q8 17 20.5 21t18.5 -9l24 -57q14 -32 14 -58q0 -30 -16 -61l-199 -363
h15q20 0 20 -20v-64q0 -20 -20 -20h-283q-20 0 -20 20v64q0 20 20 20h109zM1214 1432l-296 -527q-8 -17 -20.5 -21t-18.5 9l-25 57q-14 32 -14 58q0 30 16 61l199 363h-15q-20 0 -20 20v64q0 20 20 20h283q20 0 20 -20v-64q0 -20 -20 -20h-109z" />
    <glyph glyph-name="y" unicode="y" horiz-adv-x="1361" 
d="M1028 1536h283q20 0 20 -20v-64q0 -20 -20 -20h-105l-280 -547q-8 -17 -20.5 -21.5t-18.5 8.5l-25 58q-14 32 -14 57q0 31 16 62l185 383h-21q-20 0 -20 20v64q0 20 20 20zM35 1536h487q21 0 21 -20v-64q0 -20 -21 -20h-18l366 -715v-2v-611h62q20 0 20 -20v-64
q0 -20 -20 -20h-488q-20 0 -20 20v64q0 20 20 20h62v611v2l-367 715h-104q-21 0 -21 20v64q0 20 21 20z" />
    <glyph glyph-name="z" unicode="z" horiz-adv-x="1226" 
d="M426 0h-354q-21 0 -21 20l721 1496q0 20 21 20h354q20 0 20 -20l-721 -1496q0 -20 -20 -20zM1106 0h-516q-21 0 -21 20v64q0 20 21 20h231l146 203q15 21 41 21h98q20 0 20 -21v-287q0 -20 -20 -20zM92 1516q0 20 21 20h508q20 0 20 -20v-64q0 -20 -20 -20h-224
l-145 -203q-15 -21 -41 -21h-98q-9 0 -15 6t-6 15v287z" />
    <glyph glyph-name="braceleft" unicode="{" horiz-adv-x="425" 
d="M307 1632l64 -88q-133 0 -133 -264q0 -95 19 -274t19 -228q0 -82 -43 -133q43 -51 43 -135q0 -50 -19 -229.5t-19 -272.5q0 -123 30.5 -193.5t106.5 -70.5l-68 -88q-54 0 -92 21.5t-58.5 61.5t-29 88.5t-8.5 111.5q0 93 23.5 275.5t23.5 240.5q0 32 -27.5 69t-55.5 68.5
t-28 50.5t27.5 51.5t55.5 70t28 69.5q0 59 -23.5 241t-23.5 275q0 63 8.5 111.5t29 88.5t58.5 61t92 21z" />
    <glyph glyph-name="bar" unicode="|" horiz-adv-x="374" 
d="M123 -328q-9 0 -15 6t-6 15v1884q0 20 21 20h129q20 0 20 -20v-1884q0 -21 -20 -21h-129z" />
    <glyph glyph-name="braceright" unicode="}" horiz-adv-x="425" 
d="M117 -344l-64 88q133 0 133 264q0 95 -19.5 274t-19.5 228q0 82 43 133q-43 51 -43 135q0 50 19.5 229.5t19.5 272.5q0 123 -30.5 193.5t-106.5 70.5l68 88q54 0 92 -21t58.5 -61t29 -88.5t8.5 -111.5q0 -93 -23.5 -275.5t-23.5 -240.5q0 -32 28 -69.5t55.5 -69
t27.5 -50.5t-27.5 -51t-55.5 -69.5t-28 -69.5q0 -59 23.5 -241t23.5 -275q0 -63 -8.5 -111.5t-29 -88.5t-58.5 -61.5t-92 -21.5z" />
    <glyph glyph-name="asciitilde" unicode="~" horiz-adv-x="950" 
d="M653 362q-50 0 -105.5 29.5t-96 65t-89 65t-86.5 29.5q-43 0 -73.5 -32.5t-30.5 -74.5q0 -22 12 -43q10 -14 0 -20l-28 -16q-12 -4 -15 4q-45 78 -45 159q0 97 52 164.5t139 67.5q39 0 80.5 -20t76.5 -48t69 -56.5t71 -48.5t71 -20q47 0 86 35.5t39 77.5q0 15 -6 27
q-10 14 0 20l27 16q11 4 14 -4q41 -73 41 -139q0 -98 -56 -168t-147 -70z" />
    </font>
</defs>
</svg>
