<?xml version="1.0" standalone="no"?>
<!DOCTYPE svg PUBLIC "-//W3C//DTD SVG 1.1//EN" "http://www.w3.org/Graphics/SVG/1.1/DTD/svg11.dtd" >
<svg xmlns="http://www.w3.org/2000/svg" xmlns:xlink="http://www.w3.org/1999/xlink" version="1.1">
<metadata>
Created by FontForge 20170731 at Mon Feb 22 11:46:46 2021
 By Aleksey,,,
 
</metadata>
<defs>
<font id="CaboRoundedRegularRegular" horiz-adv-x="954" >
  <font-face 
    font-family="Cabo Rounded Regular"
    font-weight="500"
    font-stretch="normal"
    units-per-em="2048"
    panose-1="0 0 0 0 0 0 0 0 0 0"
    ascent="1638"
    descent="-410"
    x-height="1051"
    cap-height="1337"
    bbox="-322 -431 1618 1642"
    underline-thickness="102"
    underline-position="-307"
    unicode-range="U+000D-0163"
  />
<missing-glyph horiz-adv-x="1331" 
 />
    <glyph glyph-name=".notdef" horiz-adv-x="1331" 
 />
    <glyph glyph-name=".notdef" horiz-adv-x="1331" 
 />
    <glyph glyph-name=".null" horiz-adv-x="0" 
 />
    <glyph glyph-name="nonmarkingreturn" horiz-adv-x="682" 
 />
    <glyph glyph-name="controlCR" unicode="&#xd;" horiz-adv-x="446" 
 />
    <glyph glyph-name="space" unicode=" " horiz-adv-x="446" 
 />
    <glyph glyph-name="exclam" unicode="!" horiz-adv-x="227" 
d="M125 63q0 -26 -18 -44.5t-44 -18.5t-44.5 18.5t-18.5 44.5v58q0 26 18.5 44.5t44.5 18.5t44 -18.5t18 -44.5v-58zM125 1274v-940q0 -26 -18 -44.5t-44 -18.5t-44.5 18.5t-18.5 44.5v940q0 26 18.5 44.5t44.5 18.5t44 -18.5t18 -44.5z" />
    <glyph glyph-name="quotedbl" unicode="&#x22;" horiz-adv-x="397" 
d="M295 1011q0 -26 -18.5 -44.5t-44.5 -18.5t-44 18.5t-18 44.5v143q0 26 18 44.5t44 18.5t44.5 -18.5t18.5 -44.5v-143zM125 1011q0 -26 -18 -44.5t-44 -18.5t-44.5 18.5t-18.5 44.5v143q0 26 18.5 44.5t44.5 18.5t44 -18.5t18 -44.5v-143z" />
    <glyph glyph-name="numbersign" unicode="#" horiz-adv-x="901" 
d="M460 821h-121v-121h121v121zM214 1097q0 26 18 44.5t44 18.5t44.5 -18.5t18.5 -44.5v-151h121v151q0 26 18.5 44.5t44.5 18.5t44 -18.5t18 -44.5v-151h151q26 0 44.5 -18t18.5 -44t-18.5 -44.5t-44.5 -18.5h-151v-121h151q26 0 44.5 -18t18.5 -44t-18.5 -44.5
t-44.5 -18.5h-151v-151q0 -26 -18 -44.5t-44 -18.5t-44.5 18.5t-18.5 44.5v151h-121v-151q0 -26 -18.5 -44.5t-44.5 -18.5t-44 18.5t-18 44.5v151h-151q-26 0 -44.5 18.5t-18.5 44.5t18.5 44t44.5 18h151v121h-151q-26 0 -44.5 18.5t-18.5 44.5t18.5 44t44.5 18h151v151z
" />
    <glyph glyph-name="percent" unicode="%" horiz-adv-x="1017" 
d="M879 1306q22 -14 27.5 -39.5t-8.5 -47.5l-774 -1190q-19 -29 -53 -29q-18 0 -34 10q-22 14 -27 39.5t9 47.5l773 1190q14 22 39.5 27.5t47.5 -8.5zM684 405q-40 0 -69 -28.5t-29 -69.5t29 -69.5t69 -28.5t69 28.5t29 69.5t-29 69.5t-69 28.5zM684 84q-92 0 -157.5 65.5
t-65.5 157.5t65.5 157.5t157.5 65.5t158 -65.5t66 -157.5t-66 -157.5t-158 -65.5zM232 1107q-40 0 -69 -28.5t-29 -69.5t29 -69.5t69 -28.5t69 28.5t29 69.5t-29 69.5t-69 28.5zM232 786q-92 0 -157.5 65.5t-65.5 157.5t65.5 157.5t157.5 65.5t158 -65.5t66 -157.5
t-66 -157.5t-158 -65.5z" />
    <glyph glyph-name="ampersand" unicode="&#x26;" horiz-adv-x="1060" 
d="M568 146q46 20 83 56q-206 208 -339 393q-23 -9 -44.5 -19.5t-49 -29.5t-47 -41t-33 -53t-13.5 -66q0 -79 45 -146q11 -17 32 -38q12 -12 18 -17q61 -50 139 -58q18 -2 27 -2h81q53 0 101 21zM741 114l-2 -1q-56 -56 -122 -83q-72 -30 -150 -30h-81q-14 0 -40 2
q-117 12 -206 86q-18 16 -27 25q-24 24 -47 57q-66 98 -66 216q0 64 23 118.5t62 92t76 62t79 42.5q-128 207 -128 350q0 88 49 160q14 21 35 42q13 13 20 19q67 55 153 64q10 1 29 1h56q61 0 112 -22q49 -20 91 -62q21 -21 35 -42q48 -70 48 -160q0 -26 -18 -44.5
t-44 -18.5t-44.5 18.5t-18.5 44.5q0 49 -27 90q-8 12 -20 24q-22 22 -51 34q-33 13 -63 13h-56q-11 0 -16 -1q-46 -4 -86 -36q-4 -3 -11 -10q-12 -12 -20 -24q-28 -42 -28 -90q0 -69 43 -163t116.5 -195.5t152 -193t168.5 -184.5q10 38 10 71q0 26 18.5 44.5t44.5 18.5
t44 -18.5t18 -44.5q0 -89 -38 -168q81 -77 116 -108q19 -17 20.5 -43.5t-15.5 -45.5q-18 -21 -47 -21q-24 0 -41 16q-41 36 -106 98z" />
    <glyph glyph-name="parenleft" unicode="(" horiz-adv-x="573" 
d="M359 18q-132 132 -201 304t-69 346.5t69 346.5t201 304q18 18 44 18t44 -18t18 -44.5t-18 -44.5q-152 -152 -206.5 -356.5t0 -409.5t206.5 -357q18 -18 18 -44.5t-18 -44.5t-44 -18t-44 18z" />
    <glyph glyph-name="parenright" unicode=")" horiz-adv-x="573" 
d="M24 1319q18 18 44.5 18t44.5 -18q132 -132 201 -304t69 -346.5t-69 -346.5t-201 -304q-18 -18 -44 -18q-27 0 -45 18t-18 44.5t18 44.5q152 152 206.5 356.5t0 409.5t-206.5 357q-18 18 -18 44.5t18 44.5z" />
    <glyph glyph-name="asterisk" unicode="*" horiz-adv-x="702" 
d="M237 1378q0 26 18.5 44.5t44.5 18.5t44.5 -18.5t18.5 -44.5v-86l60 61q18 19 44.5 18.5t44.5 -18.5t18 -44.5t-18 -44.5l-61 -60h86q26 0 44.5 -18.5t18.5 -44.5t-18.5 -44.5t-44.5 -18.5h-86l61 -60q18 -18 18 -44.5t-18 -44.5t-44 -18q-27 0 -45 18l-60 61v-86
q0 -26 -18.5 -44.5t-44.5 -18.5t-44.5 18.5t-18.5 44.5v86l-60 -61q-18 -18 -45 -18q-26 0 -44 18t-18 44.5t18 44.5l60 60h-85q-26 0 -44.5 18.5t-18.5 44.5t18.5 44.5t44.5 18.5h85l-60 60q-18 18 -18 44.5t18 44.5t44.5 18t44.5 -18l60 -61v86z" />
    <glyph glyph-name="plus" unicode="+" horiz-adv-x="860" 
d="M0 819q0 26 18.5 44.5t44.5 18.5h253v253q0 26 18.5 44.5t44.5 18.5t44 -18.5t18 -44.5v-253h253q26 0 44.5 -18.5t18.5 -44.5t-18.5 -44.5t-44.5 -18.5h-253v-253q0 -26 -18 -44t-44 -18t-44.5 18t-18.5 44v253h-253q-26 0 -44.5 18.5t-18.5 44.5z" />
    <glyph glyph-name="comma" unicode="," horiz-adv-x="301" 
d="M24 -214q-18 18 -17.5 44.5t18.5 44.5q28 28 28 66.5t-28 66.5q-18 18 -18 44.5t18 44.5t44 18t44 -18q65 -65 65 -156t-65 -155q-18 -18 -44 -18q-27 0 -45 18z" />
    <glyph glyph-name="hyphen" unicode="-" horiz-adv-x="710" 
d="M63 698q-26 0 -44.5 18.5t-18.5 44.5t18.5 44t44.5 18h483q26 0 44.5 -18t18.5 -44t-18.5 -44.5t-44.5 -18.5h-483z" />
    <glyph glyph-name="period" unicode="." horiz-adv-x="227" 
d="M43 70q-1 -2 -1 -7q0 -4 1 -6q-1 2 -1 6q0 5 1 7zM66 83l-1 1h-2q-2 0 -6 -2q4 2 6 2h1zM63 125q26 0 44 -18t18 -44t-18 -44.5t-44 -18.5t-44.5 18.5t-18.5 44.5t18.5 44t44.5 18z" />
    <glyph glyph-name="slash" unicode="/" horiz-adv-x="808" 
d="M663 1310q23 -11 32 -36t-2 -48l-565 -1190q-17 -36 -57 -36q-13 0 -26 6q-23 11 -32 36t2 48l564 1190q11 23 36 32t48 -2z" />
    <glyph glyph-name="zero" unicode="0" 
d="M125 951v-565q0 -108 76.5 -184.5t184.5 -76.5h81q108 0 184 76.5t76 184.5v565q0 108 -76 184.5t-184 76.5h-81q-108 0 -184.5 -76.5t-76.5 -184.5zM386 0q-160 0 -273 113t-113 273v565q0 160 113 273t273 113h81q160 0 272.5 -113t112.5 -273v-565q0 -160 -112.5 -273
t-272.5 -113h-81z" />
    <glyph glyph-name="one" unicode="1" horiz-adv-x="432" 
d="M63 125h39v1087h-39q-26 0 -44.5 18t-18.5 44t18.5 44.5t44.5 18.5h165v-1212h39q26 0 44.5 -18t18.5 -44t-18.5 -44.5t-44.5 -18.5h-204q-26 0 -44.5 18.5t-18.5 44.5t18.5 44t44.5 18z" />
    <glyph glyph-name="two" unicode="2" 
d="M386 1337h81q160 0 272.5 -113t112.5 -273q0 -49 -12 -94.5t-29 -80.5t-49.5 -71.5t-58 -60.5t-72 -56.5t-74 -49.5t-79.5 -49q-45 -27 -69.5 -42.5t-64.5 -42t-62.5 -46t-51.5 -48.5t-46 -55.5t-32 -60t-21 -69.5h659q26 0 44 -18t18 -44t-18 -44.5t-44 -18.5h-727
q-26 0 -44.5 18.5t-18.5 44.5q0 59 14 113.5t33 95.5t55.5 84t65.5 70.5t79.5 63.5t80.5 55t85 52q44 26 63 38t56.5 36.5t55 39.5t45 39t40.5 44t28 46t20.5 53.5t5.5 57.5q0 108 -76 184.5t-184 76.5h-81q-108 0 -184.5 -76.5t-76.5 -184.5q0 -26 -18 -44t-44 -18
t-44.5 18t-18.5 44q0 160 113 273t273 113z" />
    <glyph glyph-name="three" unicode="3" 
d="M386 1337h81q160 0 272.5 -113t112.5 -273q0 -189 -171 -282q171 -93 171 -283q0 -160 -112.5 -273t-272.5 -113h-81q-160 0 -273 113t-113 273q0 26 18.5 44.5t44.5 18.5t44 -18.5t18 -44.5q0 -108 76.5 -184.5t184.5 -76.5h81q108 0 184 76.5t76 184.5q0 45 -16.5 81
t-40.5 58t-58 39t-62 24.5t-59.5 12t-44 5t-20.5 0.5q-26 0 -44 18.5t-18 44.5t18 44t44 18q8 0 21 0.5t43.5 5.5t59 12.5t62 24t58 39t41 58.5t16.5 80q0 108 -76 184.5t-184 76.5h-81q-108 0 -184.5 -76.5t-76.5 -184.5q0 -26 -18 -44t-44 -18t-44.5 18t-18.5 44
q0 160 113 273t273 113z" />
    <glyph glyph-name="four" unicode="4" 
d="M386 428h81q108 0 184 76.5t76 184.5v283q0 26 18.5 44t44.5 18t44 -18t18 -44v-283v-626q0 -26 -18 -44.5t-44 -18.5t-44.5 18.5t-18.5 44.5v342q-112 -102 -260 -102h-81q-160 0 -273 113t-113 273v585q0 26 18.5 44.5t44.5 18.5t44 -18.5t18 -44.5v-585
q0 -108 76.5 -184.5t184.5 -76.5z" />
    <glyph glyph-name="five" unicode="5" 
d="M467 125q108 0 184 76.5t76 184.5v262q0 108 -76 184.5t-184 76.5h-81q-108 0 -184.5 -76.5t-76.5 -184.5q0 -26 -18 -44t-44 -18t-44.5 18t-18.5 44v689h608q26 0 44.5 -18.5t18.5 -44.5t-18.5 -44t-44.5 -18h-483v-280q112 102 261 102h81q160 0 272.5 -113t112.5 -273
v-262q0 -160 -112.5 -273t-272.5 -113h-81q-160 0 -273 113t-113 273q0 26 18.5 44.5t44.5 18.5t44 -18.5t18 -44.5q0 -108 76.5 -184.5t184.5 -76.5h81z" />
    <glyph glyph-name="six" unicode="6" 
d="M125 638v-252q0 -108 76.5 -184.5t184.5 -76.5h81q108 0 184 76.5t76 184.5v252q0 108 -76 184.5t-184 76.5h-81q-108 0 -184.5 -76.5t-76.5 -184.5zM386 0q-160 0 -273 113t-113 273v565q0 160 113 273t273 113h222q26 0 44.5 -18.5t18.5 -44.5t-18.5 -44t-44.5 -18
h-222q-108 0 -184.5 -76.5t-76.5 -184.5v-28q111 101 261 101h81q160 0 272.5 -113t112.5 -273v-252q0 -160 -112.5 -273t-272.5 -113h-81z" />
    <glyph glyph-name="seven" unicode="7" horiz-adv-x="958" 
d="M63 1077q-26 0 -44.5 18.5t-18.5 44.5v134q0 26 18.5 44.5t44.5 18.5h727q31 0 50 -25q19 -26 10 -56l-364 -1211q-6 -20 -23 -32.5t-37 -12.5q-9 0 -18 3q-25 8 -37 30.5t-5 47.5l339 1131h-580v-72q0 -26 -18 -44.5t-44 -18.5z" />
    <glyph glyph-name="eight" unicode="8" 
d="M386 646q-108 0 -184.5 -76t-76.5 -184t76.5 -184.5t184.5 -76.5h81q108 0 184 76.5t76 184.5t-76 184t-184 76h-5h-71h-5zM391 1212q-91 0 -155.5 -64.5t-64.5 -155.5t64.5 -155.5t155.5 -64.5h71q91 0 155.5 64.5t64.5 155.5t-64.5 155.5t-155.5 64.5h-71zM0 386
q0 103 50 190t135 139q-65 48 -102.5 121t-37.5 156q0 142 101.5 243.5t244.5 101.5h71q142 0 243.5 -101.5t101.5 -243.5q0 -83 -37.5 -156t-102.5 -121q85 -52 135 -139t50 -190q0 -160 -112.5 -273t-272.5 -113h-81q-160 0 -273 113t-113 273z" />
    <glyph glyph-name="nine" unicode="9" 
d="M125 951v-252q0 -108 76.5 -184.5t184.5 -76.5h81q108 0 184 76.5t76 184.5v252q0 108 -76 184.5t-184 76.5h-81q-108 0 -184.5 -76.5t-76.5 -184.5zM0 699v252q0 160 113 273t273 113h81q160 0 272.5 -113t112.5 -273v-565q0 -160 -112.5 -273t-272.5 -113h-223
q-26 0 -44 18.5t-18 44.5t18 44t44 18h223q108 0 184 76.5t76 184.5v28q-111 -101 -260 -101h-81q-160 0 -273 113t-113 273z" />
    <glyph glyph-name="colon" unicode=":" horiz-adv-x="227" 
d="M44 547h-1h1zM43 544q0 -1 -0.5 -2.5t-0.5 -2.5q0 1 0.5 2.5t0.5 2.5zM63 560q-9 0 -15 -6q6 6 15 6q4 0 8 -2q-6 2 -8 2zM84 539l-1 1zM63 602q26 0 44 -18.5t18 -44.5t-18 -44.5t-44 -18.5t-44.5 18.5t-18.5 44.5t18.5 44.5t44.5 18.5zM42 342v-3v-2v2v3zM67 359
q-1 0 -4 1q-1 0 -2.5 -0.5t-2.5 -0.5q1 0 2.5 0.5t2.5 0.5h2zM125 339q0 -26 -18 -44.5t-44 -18.5t-44.5 18.5t-18.5 44.5t18.5 44t44.5 18t44 -18t18 -44z" />
    <glyph glyph-name="semicolon" unicode=";" horiz-adv-x="301" 
d="M24 -226q-18 18 -17.5 44t18.5 44q28 28 28 67t-28 67q-18 18 -18 44.5t18 44.5t44 18t44 -18q65 -65 65 -156t-65 -155q-19 -19 -44 -19q-26 0 -45 19zM48 242v-2v2zM84 255q-6 6 -15 6q-6 0 -8 -1q2 1 8 1q9 0 15 -6zM88 248v1v-1zM90 240q0 1 -0.5 3t-0.5 3
q0 -1 0.5 -3t0.5 -3zM69 178q-26 0 -44.5 18t-18.5 44t18.5 44.5t44.5 18.5t44.5 -18.5t18.5 -44.5t-18.5 -44t-44.5 -18z" />
    <glyph glyph-name="less" unicode="&#x3c;" horiz-adv-x="534" 
d="M410 982q16 -20 13 -45.5t-23 -42.5l-237 -192l237 -191q20 -17 23 -42.5t-13 -45.5q-19 -24 -49 -24q-21 0 -40 14l-298 240q-23 18 -23 49t23 49l298 240q20 17 46.5 14t42.5 -23z" />
    <glyph glyph-name="equal" unicode="=" horiz-adv-x="710" 
d="M609 638q0 -26 -18.5 -44.5t-44.5 -18.5h-483q-26 0 -44.5 18.5t-18.5 44.5t18.5 44t44.5 18h483q26 0 44.5 -18t18.5 -44zM63 821q-26 0 -44.5 18.5t-18.5 44.5t18.5 44t44.5 18h483q26 0 44.5 -18t18.5 -44t-18.5 -44.5t-44.5 -18.5h-483z" />
    <glyph glyph-name="greater" unicode="&#x3e;" horiz-adv-x="534" 
d="M22 982q17 20 42.5 22.5t45.5 -13.5l298 -240q23 -18 23 -49t-23 -49l-298 -240q-19 -14 -39 -14q-30 0 -49 24q-16 20 -13.5 45.5t22.5 42.5l238 191l-238 192q-20 17 -22.5 42.5t13.5 45.5z" />
    <glyph glyph-name="question" unicode="?" horiz-adv-x="792" 
d="M561 743q-31 -33 -46 -51t-39.5 -56.5t-36.5 -75.5t-21.5 -96t-9.5 -130q0 -26 -18.5 -44.5t-44.5 -18.5t-44.5 18.5t-18.5 44.5q0 84 12.5 156.5t28.5 118.5t45.5 93t48 69t52.5 58q37 40 52 59.5t29 55.5t14 80q0 78 -55 133t-133 55h-62q-78 0 -133.5 -55t-55.5 -133
q0 -26 -18 -44.5t-44 -18.5t-44.5 18.5t-18.5 44.5q0 130 92 221.5t222 91.5h62q130 0 222 -91.5t92 -221.5q0 -51 -10 -92.5t-32.5 -77.5t-38.5 -56.5t-48 -54.5zM345 184q26 0 44.5 -18.5t18.5 -44.5v-58q0 -26 -18.5 -44.5t-44.5 -18.5t-44.5 18.5t-18.5 44.5v58
q0 26 18.5 44.5t44.5 18.5z" />
    <glyph glyph-name="at" unicode="@" horiz-adv-x="1720" 
d="M840 401q78 0 133.5 55.5t55.5 133.5v439q0 78 -55.5 133t-133.5 55h-62q-78 0 -133 -55t-55 -133v-439q0 -78 55 -133.5t133 -55.5h62zM809 0q-164 0 -314 64t-258.5 172.5t-172.5 258.5t-64 314t64 314t172.5 258.5t258.5 172.5t314 64t314 -64t258.5 -172.5
t172.5 -258.5t64 -314q0 -234 -102 -371q-46 -61 -107.5 -95t-128.5 -34q-117 0 -190 91q-44 -57 -109.5 -90.5t-140.5 -33.5h-62q-130 0 -222 92t-92 222v439q0 130 92 221.5t222 91.5h62q107 0 189 -63q0 26 18 44.5t44 18.5t44.5 -18.5t18.5 -44.5v-250v-439
q0 -75 37 -115t89 -40q77 0 135 78q78 105 78 296q0 139 -54.5 265.5t-146 218t-218 146t-265.5 54.5t-265.5 -54.5t-218 -146t-146 -218t-54.5 -265.5t54.5 -265.5t146 -218t218 -146t265.5 -54.5q213 0 388 121q22 15 47 10.5t40 -26.5t10.5 -47.5t-26.5 -40.5
q-206 -142 -459 -142z" />
    <glyph glyph-name="A" unicode="A" 
d="M386 1212q-108 0 -184.5 -76.5t-76.5 -184.5v-355h602v355q0 108 -76 184.5t-184 76.5h-81zM125 63q0 -26 -18 -44.5t-44 -18.5t-44.5 18.5t-18.5 44.5v888q0 160 113 273t273 113h81q160 0 272.5 -113t112.5 -273v-888q0 -26 -18 -44.5t-44 -18.5t-44.5 18.5t-18.5 44.5
v407h-602v-407z" />
    <glyph glyph-name="B" unicode="B" 
d="M125 386q0 -108 76.5 -184.5t184.5 -76.5h81q108 0 184 76.5t76 184.5q0 110 -83 178t-218 68h-301v-246zM362 1212h-237v-454h301q89 0 143 62t54 131q0 108 -76.5 184.5t-184.5 76.5zM467 0h-81q-160 0 -273 113t-113 273v888q0 26 18.5 44.5t44.5 18.5h323q6 0 16 -2
q146 -15 246 -125t100 -259q0 -65 -28 -128t-79 -109q99 -46 155 -131.5t56 -196.5q0 -160 -112.5 -273t-272.5 -113z" />
    <glyph glyph-name="C" unicode="C" 
d="M852 386q0 -160 -112.5 -273t-272.5 -113h-81q-160 0 -273 113t-113 273v565q0 160 113 273t273 113h81q160 0 272.5 -113t112.5 -273q0 -26 -18 -44t-44 -18t-44.5 18t-18.5 44q0 108 -76 184.5t-184 76.5h-81q-108 0 -184.5 -76.5t-76.5 -184.5v-565
q0 -108 76.5 -184.5t184.5 -76.5h81q108 0 184 76.5t76 184.5q0 26 18.5 44.5t44.5 18.5t44 -18.5t18 -44.5z" />
    <glyph glyph-name="D" unicode="D" 
d="M332 125q101 0 174 30.5t115 78.5t66.5 123t32 146t7.5 166t-7.5 166t-32 145.5t-66.5 122.5t-115 78.5t-174 30.5h-207v-1087h207zM852 669q0 -220 -48 -354q-112 -315 -472 -315h-269q-26 0 -44.5 18.5t-18.5 44.5v1211q0 26 18.5 44.5t44.5 18.5h269q107 0 192 -29.5
t138.5 -72t92 -110t57 -121.5t28.5 -130.5t11 -113t1 -90.5v-1z" />
    <glyph glyph-name="E" unicode="E" horiz-adv-x="823" 
d="M659 1212h-534v-481h387q26 0 44.5 -18t18.5 -44t-18.5 -44.5t-44.5 -18.5h-387v-481h534q26 0 44 -18t18 -44t-18 -44.5t-44 -18.5h-596q-26 0 -44.5 18.5t-18.5 44.5v1211q0 26 18.5 44.5t44.5 18.5h596q26 0 44 -18.5t18 -44.5t-18 -44t-44 -18z" />
    <glyph glyph-name="F" unicode="F" horiz-adv-x="823" 
d="M659 1337q26 0 44 -18.5t18 -44.5t-18 -44t-44 -18h-534v-481h387q26 0 44.5 -18t18.5 -44t-18.5 -44.5t-44.5 -18.5h-387v-543q0 -26 -18 -44.5t-44 -18.5t-44.5 18.5t-18.5 44.5v1211q0 26 18.5 44.5t44.5 18.5h596z" />
    <glyph glyph-name="G" unicode="G" 
d="M467 0h-81q-160 0 -273 113t-113 273v565q0 160 113 273t273 113h81q160 0 272.5 -113t112.5 -273q0 -26 -18 -44t-44 -18t-44.5 18t-18.5 44q0 108 -76 184.5t-184 76.5h-81q-108 0 -184.5 -76.5t-76.5 -184.5v-565q0 -108 76.5 -184.5t184.5 -76.5h81q108 0 184 76.5
t76 184.5v220h-301q-26 0 -44 18.5t-18 44.5t18 44t44 18h364q26 0 44 -18t18 -44v-283q0 -160 -112.5 -273t-272.5 -113z" />
    <glyph glyph-name="H" unicode="H" 
d="M790 0q-26 0 -44.5 18.5t-18.5 44.5v543h-602v-543q0 -26 -18 -44.5t-44 -18.5t-44.5 18.5t-18.5 44.5v1211q0 26 18.5 44.5t44.5 18.5t44 -18.5t18 -44.5v-543h602v543q0 26 18.5 44.5t44.5 18.5t44 -18.5t18 -44.5v-1211q0 -26 -18 -44.5t-44 -18.5z" />
    <glyph glyph-name="I" unicode="I" horiz-adv-x="227" 
d="M63 1337q26 0 44 -18.5t18 -44.5v-1211q0 -26 -18 -44.5t-44 -18.5t-44.5 18.5t-18.5 44.5v1211q0 26 18.5 44.5t44.5 18.5z" />
    <glyph glyph-name="J" unicode="J" 
d="M852 386q0 -160 -112.5 -273t-272.5 -113h-81q-160 0 -273 113t-113 273q0 26 18.5 44.5t44.5 18.5t44 -18.5t18 -44.5q0 -108 76.5 -184.5t184.5 -76.5h81q108 0 184 76.5t76 184.5v826h-301q-26 0 -44 18t-18 44t18 44.5t44 18.5h364q26 0 44 -18.5t18 -44.5v-888z" />
    <glyph glyph-name="K" unicode="K" horiz-adv-x="964" 
d="M63 0q-26 0 -44.5 18.5t-18.5 44.5v1211q0 26 18.5 44.5t44.5 18.5t44 -18.5t18 -44.5v-472l625 521q20 17 46 14.5t42 -22.5q17 -20 14.5 -46.5t-22.5 -42.5l-444 -370l458 -761q13 -23 7 -47.5t-29 -38.5q-15 -9 -32 -9q-36 0 -54 30l-448 745l-163 -136v-576
q0 -26 -18 -44.5t-44 -18.5z" />
    <glyph glyph-name="L" unicode="L" 
d="M852 63q0 -26 -18 -44.5t-44 -18.5h-727q-26 0 -44.5 18.5t-18.5 44.5v1211q0 26 18.5 44.5t44.5 18.5t44 -18.5t18 -44.5v-1149h665q26 0 44 -18t18 -44z" />
    <glyph glyph-name="M" unicode="M" horiz-adv-x="1318" 
d="M1153 0q-26 0 -44 18.5t-18 44.5v1006l-431 -638q-19 -27 -52 -27t-52 27l-431 638v-1006q0 -26 -18 -44.5t-44 -18.5t-44.5 18.5t-18.5 44.5v1211q0 21 12 37.5t32 22.5t40 -0.5t31 -23.5l493 -731l493 731q11 17 31 23.5t40 0.5t32 -22.5t12 -37.5v-1211
q0 -26 -18.5 -44.5t-44.5 -18.5z" />
    <glyph glyph-name="N" unicode="N" 
d="M790 0q-35 0 -54 30l-611 1018v-985q0 -26 -18 -44.5t-44 -18.5t-44.5 18.5t-18.5 44.5v1211q0 21 13 38t33 23q20 5 40 -2.5t30 -25.5l611 -1018v985q0 26 18.5 44.5t44.5 18.5t44 -18.5t18 -44.5v-1211q0 -21 -12.5 -38t-32.5 -23q-6 -2 -17 -2z" />
    <glyph glyph-name="O" unicode="O" 
d="M125 951v-565q0 -108 76.5 -184.5t184.5 -76.5h81q108 0 184 76.5t76 184.5v565q0 108 -76 184.5t-184 76.5h-81q-108 0 -184.5 -76.5t-76.5 -184.5zM0 951q0 160 113 273t273 113h81q160 0 272.5 -113t112.5 -273v-565q0 -160 -112.5 -273t-272.5 -113h-81
q-160 0 -273 113t-113 273v565z" />
    <glyph glyph-name="P" unicode="P" 
d="M125 1212v-480l342 -2q98 0 179 69.5t81 172.5q0 104 -73.5 172t-186.5 68h-342zM852 972q0 -147 -115.5 -257.5t-269.5 -110.5l-342 3v-544q0 -26 -18 -44.5t-44 -18.5t-44.5 18.5t-18.5 44.5v1211q0 26 18.5 44.5t44.5 18.5h404q165 0 275 -104.5t110 -260.5z" />
    <glyph glyph-name="Q" unicode="Q" horiz-adv-x="960" 
d="M125 386q0 -108 76.5 -184.5t184.5 -76.5h81q72 0 134 38l-45 45q-18 18 -18 44.5t18 44.5t44.5 18t44.5 -18l44 -45q38 62 38 134v565q0 108 -76 184.5t-184 76.5h-81q-108 0 -184.5 -76.5t-76.5 -184.5v-565zM467 0h-81q-160 0 -273 113t-113 273v565q0 160 113 273
t273 113h81q160 0 272.5 -113t112.5 -273v-565q0 -126 -72 -225l54 -54q18 -18 18 -44.5t-18 -44.5t-44 -18q-27 0 -45 18l-54 55q-100 -73 -224 -73z" />
    <glyph glyph-name="R" unicode="R" horiz-adv-x="964" 
d="M125 1212v-480l342 -2q98 0 179 69.5t81 172.5q0 104 -73.5 172t-186.5 68h-342zM734 33l-305 571l-304 3v-544q0 -26 -18 -44.5t-44 -18.5t-44.5 18.5t-18.5 44.5v1211q0 26 18.5 44.5t44.5 18.5h404q165 0 275 -104.5t110 -260.5q0 -122 -82.5 -221.5t-205.5 -132.5
l281 -526q12 -23 4.5 -48t-30.5 -37q-13 -7 -29 -7q-39 0 -56 33z" />
    <glyph glyph-name="S" unicode="S" 
d="M417 604q-42 8 -64 12.5t-63 15t-64.5 19.5t-58.5 24.5t-55 32.5t-44.5 42t-37 53.5t-21.5 66.5t-9 81q0 160 113 273t273 113h81q160 0 272.5 -113t112.5 -273q0 -26 -18 -44t-44 -18t-44.5 18t-18.5 44q0 108 -76 184.5t-184 76.5h-81q-108 0 -184.5 -76.5
t-76.5 -184.5q0 -38 8.5 -67.5t29.5 -51.5t43.5 -37t64 -27.5t76.5 -20.5t94 -20q38 -7 56.5 -11t56 -13t58 -16.5t53 -20t51.5 -26t43.5 -32t39 -41t28 -49.5t19.5 -60.5t6 -71.5q0 -160 -112.5 -273t-272.5 -113h-81q-160 0 -273 113t-113 273q0 26 18.5 44.5t44.5 18.5
t44 -18.5t18 -44.5q0 -108 76.5 -184.5t184.5 -76.5h81q108 0 184 76.5t76 184.5q0 37 -8.5 65.5t-29 49.5t-42.5 35.5t-62.5 27t-75 21t-92.5 19.5z" />
    <glyph glyph-name="T" unicode="T" 
d="M790 1212h-301v-1149q0 -26 -18.5 -44.5t-44.5 -18.5t-44 18.5t-18 44.5v1149h-301q-26 0 -44.5 18t-18.5 44t18.5 44.5t44.5 18.5h727q26 0 44 -18.5t18 -44.5t-18 -44t-44 -18z" />
    <glyph glyph-name="U" unicode="U" 
d="M790 1337q26 0 44 -18.5t18 -44.5v-888q0 -160 -112.5 -273t-272.5 -113h-81q-160 0 -273 113t-113 273v888q0 26 18.5 44.5t44.5 18.5t44 -18.5t18 -44.5v-888q0 -108 76.5 -184.5t184.5 -76.5h81q108 0 184 76.5t76 184.5v888q0 26 18.5 44.5t44.5 18.5z" />
    <glyph glyph-name="V" unicode="V" horiz-adv-x="968" 
d="M815 1335q25 -7 37.5 -30.5t4.5 -48.5l-363 -1211q-6 -20 -22.5 -32.5t-37.5 -12.5t-38 12.5t-23 32.5l-363 1211q-8 25 4.5 48.5t37.5 30.5t47.5 -5.5t30.5 -37.5l304 -1011l303 1011q8 25 30.5 37.5t47.5 5.5z" />
    <glyph glyph-name="W" unicode="W" horiz-adv-x="1318" 
d="M1153 1337q26 0 44.5 -18.5t18.5 -44.5v-1211q0 -21 -12 -37.5t-32 -22.5t-40 1t-31 24l-493 731l-493 -731q-19 -28 -52 -28q-10 0 -19 3q-20 6 -32 22.5t-12 37.5v1211q0 26 18.5 44.5t44.5 18.5t44 -18.5t18 -44.5v-1006l431 638q20 28 52 28t52 -28l431 -638v1006
q0 26 18 44.5t44 18.5z" />
    <glyph glyph-name="X" unicode="X" horiz-adv-x="972" 
d="M831 1328q22 -13 28.5 -38.5t-7.5 -47.5l-344 -573l344 -574q14 -22 7.5 -47.5t-28.5 -38.5q-15 -9 -32 -9q-36 0 -54 30l-310 517l-310 -517q-18 -30 -53 -30q-18 0 -33 9q-22 13 -28.5 38.5t7.5 47.5l344 574l-344 573q-14 22 -7.5 47.5t28.5 38.5q22 14 47.5 7.5
t38.5 -28.5l310 -517l310 517q13 22 38.5 28.5t47.5 -7.5z" />
    <glyph glyph-name="Y" unicode="Y" horiz-adv-x="972" 
d="M831 1328q22 -13 28.5 -38.5t-7.5 -47.5l-354 -591v-588q0 -26 -18.5 -44.5t-44.5 -18.5t-44.5 18.5t-18.5 44.5v588l-354 591q-14 22 -7.5 47.5t28.5 38.5q22 14 47.5 7.5t38.5 -28.5l310 -517l310 517q13 22 38.5 28.5t47.5 -7.5z" />
    <glyph glyph-name="Z" unicode="Z" horiz-adv-x="960" 
d="M793 125q26 0 44 -18t18 -44t-18 -44.5t-44 -18.5h-727q-37 0 -55 32q-18 33 1 63l670 1117h-616q-26 0 -44.5 18t-18.5 44t18.5 44.5t44.5 18.5h727q36 0 54 -32q19 -34 0 -63l-671 -1117h617z" />
    <glyph glyph-name="bracketleft" unicode="[" horiz-adv-x="419" 
d="M254 1212h-129v-1087h129q26 0 44 -18t18 -44t-18 -44.5t-44 -18.5h-254v1337h254q26 0 44 -18.5t18 -44.5t-18 -44t-44 -18z" />
    <glyph glyph-name="backslash" unicode="\" horiz-adv-x="808" 
d="M45 1310q23 11 47.5 2t35.5 -32l565 -1190q11 -23 2 -48t-32 -36q-13 -6 -27 -6q-40 0 -57 36l-564 1190q-11 23 -2 48t32 36z" />
    <glyph glyph-name="bracketright" unicode="]" horiz-adv-x="419" 
d="M63 125h128v1087h-128q-26 0 -44.5 18t-18.5 44t18.5 44.5t44.5 18.5h253v-1337h-253q-26 0 -44.5 18.5t-18.5 44.5t18.5 44t44.5 18z" />
    <glyph glyph-name="asciicircum" unicode="^" horiz-adv-x="724" 
d="M31 1089q-20 16 -23 42.5t14 46.5l240 298q18 23 49 23t49 -23l240 -298q16 -20 13 -46t-23 -43q-20 -16 -45.5 -13t-42.5 23l-191 237l-192 -237q-19 -24 -48 -24q-21 0 -40 14z" />
    <glyph glyph-name="underscore" unicode="_" horiz-adv-x="901" 
d="M0 63q0 26 18.5 44t44.5 18h673q26 0 44.5 -18t18.5 -44t-18.5 -44.5t-44.5 -18.5h-673q-26 0 -44.5 18.5t-18.5 44.5z" />
    <glyph glyph-name="grave" unicode="`" horiz-adv-x="301" 
d="M24 1016q28 28 28 66.5t-28 66.5q-18 18 -17.5 44.5t18.5 44.5q19 18 44.5 18t43.5 -18q65 -64 65 -155t-65 -156q-18 -18 -44 -18q-27 0 -45 18t-18 44.5t18 44.5z" />
    <glyph glyph-name="a" unicode="a" horiz-adv-x="843" 
d="M564 314v156h-219q-190 0 -208 -14q-12 -10 -12 -142q0 -78 55.5 -133.5t133.5 -55.5h62q78 0 133 55.5t55 133.5zM345 596h219v157q0 78 -55 133t-133 55h-62q-78 0 -133.5 -55t-55.5 -133q0 -26 -18 -44.5t-44 -18.5t-44.5 18.5t-18.5 44.5q0 130 92 221.5t222 91.5h62
q130 0 222 -91.5t92 -221.5v-439q0 -130 -92 -222t-222 -92h-62q-130 0 -222 92t-92 222q0 42 1 72.5t5.5 59t9.5 47.5t17.5 35.5t24 26.5t34 18.5t43.5 12t57 6.5t69 3.5t84 0.5z" />
    <glyph glyph-name="b" unicode="b" horiz-adv-x="843" 
d="M314 941q-78 0 -133.5 -55t-55.5 -133v-439q0 -78 55.5 -133.5t133.5 -55.5h62q78 0 133 55.5t55 133.5v439q0 78 -55 133t-133 55h-62zM314 0q-130 0 -222 92t-92 222v439v521q0 26 18.5 44.5t44.5 18.5t44 -18.5t18 -44.5v-271q82 63 189 63h62q130 0 222 -91.5
t92 -221.5v-439q0 -130 -92 -222t-222 -92h-62z" />
    <glyph glyph-name="c" unicode="c" horiz-adv-x="843" 
d="M314 0q-130 0 -222 92t-92 222v439q0 130 92 221.5t222 91.5h62q130 0 222 -91.5t92 -221.5q0 -26 -18.5 -44.5t-44.5 -18.5t-44.5 18.5t-18.5 44.5q0 78 -55 133t-133 55h-62q-78 0 -133.5 -55t-55.5 -133v-439q0 -78 55.5 -133.5t133.5 -55.5h62q78 0 133 55.5
t55 133.5q0 26 18.5 44t44.5 18t44.5 -18t18.5 -44q0 -130 -92 -222t-222 -92h-62z" />
    <glyph glyph-name="d" unicode="d" horiz-adv-x="843" 
d="M125 753v-439q0 -78 55.5 -133.5t133.5 -55.5h62q78 0 133 55.5t55 133.5v439q0 78 -55 133t-133 55h-62q-78 0 -133.5 -55t-55.5 -133zM314 0q-130 0 -222 92t-92 222v439q0 130 92 221.5t222 91.5h62q106 0 188 -63v271q0 26 18.5 44.5t44.5 18.5t44.5 -18.5
t18.5 -44.5v-521v-439q0 -130 -92 -222t-222 -92h-62z" />
    <glyph glyph-name="e" unicode="e" horiz-adv-x="843" 
d="M125 753v-157h220q190 0 208 14q11 9 11 143q0 78 -55 133t-133 55h-62q-78 0 -133.5 -55t-55.5 -133zM314 0q-130 0 -222 92t-92 222v439q0 130 92 221.5t222 91.5h62q130 0 222 -91.5t92 -221.5q0 -53 -2 -89t-9.5 -67.5t-16.5 -50.5t-30.5 -34.5t-42.5 -22.5
t-61.5 -12t-79.5 -6t-103 -1h-220v-156q0 -78 55.5 -133.5t133.5 -55.5h62q78 0 133 55.5t55 133.5q0 26 18.5 44t44.5 18t44.5 -18t18.5 -44q0 -130 -92 -222t-222 -92h-62z" />
    <glyph glyph-name="f" unicode="f" horiz-adv-x="571" 
d="M63 0q-26 0 -44.5 18.5t-18.5 44.5v961q0 130 92 221.5t222 91.5h41q26 0 44.5 -18.5t18.5 -44.5t-18.5 -44t-44.5 -18h-41q-78 0 -133.5 -55t-55.5 -133v-157h230q26 0 44.5 -18.5t18.5 -44.5t-18.5 -44.5t-44.5 -18.5h-230v-678q0 -26 -18 -44.5t-44 -18.5z" />
    <glyph glyph-name="g" unicode="g" horiz-adv-x="843" 
d="M125 753v-439q0 -78 55.5 -133.5t133.5 -55.5h62q78 0 133 55.5t55 133.5v439q0 78 -55 133t-133 55h-62q-78 0 -133.5 -55t-55.5 -133zM314 0q-130 0 -222 92t-92 222v439q0 130 92 221.5t222 91.5h62q130 0 222 -91.5t92 -221.5v-439q0 -4 -0.5 -11t-0.5 -10
q1 -3 1 -11v-239q0 -130 -92 -222t-222 -92h-62q-26 0 -44.5 18.5t-18.5 44.5t18.5 44t44.5 18h62q78 0 133 55.5t55 133.5v20q-82 -63 -188 -63h-62z" />
    <glyph glyph-name="h" unicode="h" horiz-adv-x="843" 
d="M63 21q-26 0 -44.5 18.5t-18.5 44.5v669v521q0 26 18.5 44.5t44.5 18.5t44 -18.5t18 -44.5v-271q82 63 189 63h62q130 0 222 -91.5t92 -221.5v-669q0 -26 -18.5 -44.5t-44.5 -18.5t-44.5 18.5t-18.5 44.5v669q0 78 -55 133t-133 55h-62q-78 0 -133.5 -55t-55.5 -133v-669
q0 -26 -18 -44.5t-44 -18.5z" />
    <glyph glyph-name="i" unicode="i" horiz-adv-x="278" 
d="M63 1153q-26 0 -44.5 18.5t-18.5 44.5v58q0 26 18.5 44.5t44.5 18.5t44 -18.5t18 -44.5v-58q0 -26 -18 -44.5t-44 -18.5zM63 0q-26 0 -44.5 18.5t-18.5 44.5v941q0 26 18.5 44t44.5 18t44 -18t18 -44v-941q0 -26 -18 -44.5t-44 -18.5z" />
    <glyph glyph-name="j" unicode="j" horiz-adv-x="268" 
d="M54 1153q-26 0 -44 18.5t-18 44.5v58q0 26 18 44.5t44 18.5t44.5 -18.5t18.5 -44.5v-58q0 -26 -18.5 -44.5t-44.5 -18.5zM-259 -271q-26 0 -44.5 18.5t-18.5 44.5t18.5 44t44.5 18h63q78 0 133 55.5t55 133.5v961q0 26 18 44t44 18t44.5 -18t18.5 -44v-961
q0 -130 -91.5 -222t-221.5 -92h-63z" />
    <glyph glyph-name="k" unicode="k" horiz-adv-x="851" 
d="M63 0q-26 0 -44.5 18.5t-18.5 44.5v1211q0 26 18.5 44.5t44.5 18.5t44 -18.5t18 -44.5v-555l465 335q21 15 47 11t41 -25t11 -46.5t-25 -40.5l-243 -176l265 -692q9 -24 -1.5 -48t-34.5 -33q-9 -4 -23 -4q-42 0 -58 40l-253 661l-191 -137v-501q0 -26 -18 -44.5
t-44 -18.5z" />
    <glyph glyph-name="l" unicode="l" horiz-adv-x="530" 
d="M314 0q-130 0 -222 92t-92 222v960q0 26 18.5 44.5t44.5 18.5t44 -18.5t18 -44.5v-960q0 -78 55.5 -133.5t133.5 -55.5q26 0 44 -18t18 -44t-18 -44.5t-44 -18.5z" />
    <glyph glyph-name="m" unicode="m" horiz-adv-x="1406" 
d="M63 0q-26 0 -44.5 18.5t-18.5 44.5v690q0 130 92 221.5t222 91.5h62q76 0 141.5 -34t109.5 -92q44 58 109.5 92t141.5 34h63q130 0 221.5 -91.5t91.5 -221.5v-690q0 -26 -18 -44.5t-44 -18.5t-44.5 18.5t-18.5 44.5v690q0 78 -55 133t-133 55h-63q-78 0 -133 -55
t-55 -133v-690q0 -26 -18.5 -44.5t-44.5 -18.5t-44.5 18.5t-18.5 44.5v690q0 78 -55 133t-133 55h-62q-78 0 -133.5 -55t-55.5 -133v-690q0 -26 -18 -44.5t-44 -18.5z" />
    <glyph glyph-name="n" unicode="n" horiz-adv-x="843" 
d="M63 0q-26 0 -44.5 18.5t-18.5 44.5v690q0 130 92 221.5t222 91.5h62q130 0 222 -91.5t92 -221.5v-690q0 -26 -18.5 -44.5t-44.5 -18.5t-44.5 18.5t-18.5 44.5v690q0 78 -55 133t-133 55h-62q-78 0 -133.5 -55t-55.5 -133v-690q0 -26 -18 -44.5t-44 -18.5z" />
    <glyph glyph-name="o" unicode="o" horiz-adv-x="843" 
d="M125 753v-439q0 -78 55.5 -133.5t133.5 -55.5h62q78 0 133 55.5t55 133.5v439q0 78 -55 133t-133 55h-62q-78 0 -133.5 -55t-55.5 -133zM314 0q-130 0 -222 92t-92 222v439q0 130 92 221.5t222 91.5h62q130 0 222 -91.5t92 -221.5v-439q0 -130 -92 -222t-222 -92h-62z
" />
    <glyph glyph-name="p" unicode="p" horiz-adv-x="843" 
d="M125 753v-439q0 -78 55.5 -133.5t133.5 -55.5h62q78 0 133 55.5t55 133.5v439q0 78 -55 133t-133 55h-62q-78 0 -133.5 -55t-55.5 -133zM63 -164q-26 0 -44.5 18.5t-18.5 44.5v415v439q0 130 92 221.5t222 91.5h62q130 0 222 -91.5t92 -221.5v-439q0 -130 -92 -222
t-222 -92h-62q-107 0 -189 63v-164q0 -26 -18 -44.5t-44 -18.5z" />
    <glyph glyph-name="q" unicode="q" horiz-adv-x="843" 
d="M125 753v-439q0 -78 55.5 -133.5t133.5 -55.5h62q78 0 133 55.5t55 133.5v439q0 78 -55 133t-133 55h-62q-78 0 -133.5 -55t-55.5 -133zM314 0q-130 0 -222 92t-92 222v439q0 130 92 221.5t222 91.5h62q130 0 222 -91.5t92 -221.5v-439v-415q0 -26 -18.5 -44.5
t-44.5 -18.5t-44.5 18.5t-18.5 44.5v164q-82 -63 -188 -63h-62z" />
    <glyph glyph-name="r" unicode="r" horiz-adv-x="843" 
d="M63 0q-26 0 -44.5 18.5t-18.5 44.5v690q0 130 92 221.5t222 91.5h62q130 0 222 -91.5t92 -221.5q0 -26 -18.5 -44.5t-44.5 -18.5t-44.5 18.5t-18.5 44.5q0 78 -55 133t-133 55h-62q-78 0 -133.5 -55t-55.5 -133v-690q0 -26 -18 -44.5t-44 -18.5z" />
    <glyph glyph-name="s" unicode="s" horiz-adv-x="843" 
d="M376 125q78 0 133 55.5t55 133.5q0 71 -48 100t-181 55q-41 8 -64 13t-63.5 17t-64.5 24.5t-54.5 34.5t-47.5 48t-29 64t-12 83q0 130 92 221.5t222 91.5h62q130 0 222 -91.5t92 -221.5q0 -26 -18.5 -44.5t-44.5 -18.5t-44.5 18.5t-18.5 44.5q0 78 -55 133t-133 55h-62
q-78 0 -133.5 -55t-55.5 -133q0 -74 49.5 -104.5t184.5 -56.5q41 -8 63.5 -13t62.5 -16.5t64 -24t54 -34t46.5 -47t28.5 -62.5t12 -81q0 -130 -92 -222t-222 -92h-62q-130 0 -222 92t-92 222q0 26 18.5 44t44.5 18t44 -18t18 -44q0 -78 55.5 -133.5t133.5 -55.5h62z" />
    <glyph glyph-name="t" unicode="t" horiz-adv-x="530" 
d="M314 0q-130 0 -222 92t-92 222v960q0 26 18.5 44.5t44.5 18.5t44 -18.5t18 -44.5v-208h79q26 0 44.5 -18t18.5 -44t-18.5 -44.5t-44.5 -18.5h-79v-627q0 -78 55.5 -133.5t133.5 -55.5q26 0 44 -18t18 -44t-18 -44.5t-44 -18.5z" />
    <glyph glyph-name="u" unicode="u" horiz-adv-x="843" 
d="M314 0q-130 0 -222 92t-92 222v690q0 26 18.5 44t44.5 18t44 -18t18 -44v-690q0 -78 55.5 -133.5t133.5 -55.5h62q78 0 133 55.5t55 133.5v690q0 26 18.5 44t44.5 18t44.5 -18t18.5 -44v-690q0 -130 -92 -222t-222 -92h-62z" />
    <glyph glyph-name="v" unicode="v" horiz-adv-x="858" 
d="M412 45h-120l-282 940q-8 25 4.5 48.5t37.5 30.5t47.5 -5t30.5 -37l222 -741l222 741q7 25 30.5 37.5t48.5 4.5q25 -7 37.5 -30.5t4.5 -48.5z" />
    <glyph glyph-name="w" unicode="w" horiz-adv-x="1406" 
d="M878 0q-76 0 -141.5 34t-109.5 92q-44 -58 -109.5 -92t-141.5 -34h-62q-130 0 -222 92t-92 222v690q0 26 18.5 44t44.5 18t44 -18t18 -44v-690q0 -78 55.5 -133.5t133.5 -55.5h62q78 0 133 55.5t55 133.5v690q0 26 18.5 44t44.5 18t44.5 -18t18.5 -44v-690
q0 -78 55 -133.5t133 -55.5h63q78 0 133 55.5t55 133.5v690q0 26 18.5 44t44.5 18t44 -18t18 -44v-690q0 -130 -91.5 -222t-221.5 -92h-63z" />
    <glyph glyph-name="x" unicode="x" horiz-adv-x="862" 
d="M39 19q-22 13 -28.5 38.5t7.5 47.5l263 438l-263 438q-14 22 -7.5 47.5t28.5 38.5q23 13 47.5 7t38.5 -29l229 -380l228 380q14 23 38.5 29t47.5 -7q23 -14 29 -38.5t-7 -47.5l-263 -438l263 -438q13 -23 7 -47.5t-29 -38.5q-15 -9 -32 -9q-36 0 -54 30l-228 381
l-229 -381q-18 -30 -53 -30q-18 0 -33 9z" />
    <glyph glyph-name="y" unicode="y" horiz-adv-x="843" 
d="M314 0q-130 0 -222 92t-92 222v690q0 26 18.5 44t44.5 18t44 -18t18 -44v-690q0 -78 55.5 -133.5t133.5 -55.5h62q78 0 133 55.5t55 133.5v1v689q0 26 18.5 44t44.5 18t44.5 -18t18.5 -44v-689v-1v-271q0 -130 -92 -222t-222 -92h-62q-26 0 -44.5 18.5t-18.5 44.5
t18.5 44t44.5 18h62q78 0 133 55.5t55 133.5v20q-82 -63 -188 -63h-62z" />
    <glyph glyph-name="z" unicode="z" horiz-adv-x="849" 
d="M693 63q0 -26 -18.5 -44.5t-44.5 -18.5h-564q-37 0 -55 32q-18 33 1 63l507 830h-453q-26 0 -44.5 18.5t-18.5 44.5t18.5 44.5t44.5 18.5h564q37 0 55 -32q18 -33 -1 -64l-506 -830h452q26 0 44.5 -18t18.5 -44z" />
    <glyph glyph-name="braceleft" unicode="{" horiz-adv-x="411" 
d="M63 72q-22 30 -30.5 67.5t-1 87t15.5 83t26 93.5q12 41 19 68t14 62.5t5.5 59.5t-11.5 36q-1 1 -4 7l-3 3q-1 1 -1 3t-1 3q-5 13 -5 24q0 10 5 23q1 1 1 3t1 3l3 3q3 6 4 7v1q10 12 11.5 36t-5.5 59.5t-14 62t-19 67.5q-18 60 -26 93.5t-15.5 83t1 87t30.5 67.5
q54 72 183 72q26 0 44 -18.5t18 -44.5t-18 -44t-44 -18q-65 0 -82 -22q-9 -12 -10.5 -34.5t6.5 -60t14 -59t19 -67.5q16 -52 23.5 -82.5t15.5 -74t5 -78.5t-16 -65q13 -30 16 -65t-5 -78.5t-15.5 -74.5t-23.5 -83q-13 -46 -18.5 -67t-14 -58.5t-7 -60t10.5 -34.5
q18 -23 82 -23q26 0 44 -18t18 -44t-18 -44.5t-44 -18.5q-129 0 -183 72z" />
    <glyph glyph-name="bar" unicode="|" horiz-adv-x="227" 
d="M63 0q-26 0 -44.5 18.5t-18.5 44.5v1492q0 26 18.5 44.5t44.5 18.5t44 -18.5t18 -44.5v-1492q0 -26 -18 -44.5t-44 -18.5z" />
    <glyph glyph-name="braceright" unicode="}" horiz-adv-x="411" 
d="M245 1265q22 -30 30.5 -68t1.5 -86.5t-15 -83t-26 -93.5q-13 -43 -19.5 -68t-14 -61.5t-6 -60t11.5 -35.5v-1q3 -3 5 -7l1 -1q0 -2 1 -2l3 -6q4 -11 4 -23q0 -13 -4 -24l-3 -6l-1 -1q0 -2 -1 -2q-2 -4 -5 -7q-10 -12 -11.5 -35.5t6 -60t14 -62t19.5 -68.5
q18 -59 26 -93.5t15 -83t-1.5 -86.5t-30.5 -68q-54 -72 -182 -72q-26 0 -44.5 18.5t-18.5 44.5t18.5 44t44.5 18q64 0 82 23q9 12 10.5 34.5t-7 60t-14 58.5t-18.5 67q-16 53 -23.5 83t-16 74.5t-5.5 79t16 64.5q-13 30 -16 64.5t5.5 79t16 73.5t23.5 83q13 46 19 67.5
t14 59t6.5 60t-10.5 34.5q-17 22 -82 22q-26 0 -44.5 18t-18.5 44t18.5 44.5t44.5 18.5q128 0 182 -72z" />
    <glyph glyph-name="asciitilde" unicode="~" horiz-adv-x="684" 
d="M335 658q-64 -64 -155 -64q-92 0 -156 64q-18 18 -18 44.5t18 44.5q19 18 45 18t44 -18q28 -28 67 -28t67 28q65 65 155 65t155 -65q18 -18 18 -44.5t-18 -44.5t-44 -18t-44 18q-28 28 -67 28t-67 -28z" />
    <glyph glyph-name="nonbreakingspace" unicode="&#xa0;" horiz-adv-x="446" 
 />
    <glyph glyph-name="Agrave" unicode="&#xc0;" 
d="M290 1633q13 11 31 8.5t28 -15.5l110 -136q11 -13 8.5 -31t-15.5 -28q-12 -9 -26 -9q-20 0 -32 15l-110 137q-11 13 -9 31t15 28zM125 596h602v355q0 108 -76 184.5t-184 76.5h-81q-108 0 -184.5 -76.5t-76.5 -184.5v-355zM467 1337q160 0 272.5 -113t112.5 -273v-888
q0 -26 -18 -44.5t-44 -18.5t-44.5 18.5t-18.5 44.5v407h-602v-407q0 -26 -18 -44.5t-44 -18.5t-44.5 18.5t-18.5 44.5v888q0 160 113 273t273 113h81z" />
    <glyph glyph-name="Aacute" unicode="&#xc1;" 
d="M400 1431q-13 10 -15 28t9 31l110 136q10 13 28 15.5t31 -8.5q13 -10 15 -28t-9 -31l-110 -137q-12 -15 -33 -15q-14 0 -26 9zM125 596h602v355q0 108 -76 184.5t-184 76.5h-81q-108 0 -184.5 -76.5t-76.5 -184.5v-355zM467 1337q160 0 272.5 -113t112.5 -273v-888
q0 -26 -18 -44.5t-44 -18.5t-44.5 18.5t-18.5 44.5v407h-602v-407q0 -26 -18 -44.5t-44 -18.5t-44.5 18.5t-18.5 44.5v888q0 160 113 273t273 113h81z" />
    <glyph glyph-name="Acircumflex" unicode="&#xc2;" 
d="M426 1642q20 0 33 -16l110 -136q11 -13 9 -31t-15 -28q-12 -9 -27 -9q-20 0 -32 15l-78 97l-77 -97q-10 -13 -28 -15t-31 9q-13 10 -15 28t9 31l110 136q13 16 32 16zM125 596h602v355q0 108 -76 184.5t-184 76.5h-81q-108 0 -184.5 -76.5t-76.5 -184.5v-355zM467 1337
q160 0 272.5 -113t112.5 -273v-888q0 -26 -18 -44.5t-44 -18.5t-44.5 18.5t-18.5 44.5v407h-602v-407q0 -26 -18 -44.5t-44 -18.5t-44.5 18.5t-18.5 44.5v888q0 160 113 273t273 113h81z" />
    <glyph glyph-name="Atilde" unicode="&#xc3;" 
d="M550 1593q12 12 30 12t30 -12t12 -29.5t-12 -29.5q-76 -76 -184 -76q-107 0 -183 76q-12 12 -12 29.5t12 29.5t29.5 12t29.5 -12q51 -51 124 -51t124 51zM125 596h602v355q0 108 -76 184.5t-184 76.5h-81q-108 0 -184.5 -76.5t-76.5 -184.5v-355zM467 1337
q160 0 272.5 -113t112.5 -273v-888q0 -26 -18 -44.5t-44 -18.5t-44.5 18.5t-18.5 44.5v407h-602v-407q0 -26 -18 -44.5t-44 -18.5t-44.5 18.5t-18.5 44.5v888q0 160 113 273t273 113h81z" />
    <glyph glyph-name="Adieresis" unicode="&#xc4;" 
d="M125 596h602v355q0 108 -76 184.5t-184 76.5h-81q-108 0 -184.5 -76.5t-76.5 -184.5v-355zM467 1337q160 0 272.5 -113t112.5 -273v-888q0 -26 -18 -44.5t-44 -18.5t-44.5 18.5t-18.5 44.5v407h-602v-407q0 -26 -18 -44.5t-44 -18.5t-44.5 18.5t-18.5 44.5v888
q0 160 113 273t273 113h81zM575 1558q-11 0 -19 -7.5t-8 -18.5t8 -19t19 -8t19 8t8 19t-8 18.5t-19 7.5zM575 1422q-46 0 -78 32t-32 78t32 78t78 32t78 -32t32 -78t-32 -78t-78 -32zM277 1558q-11 0 -18.5 -7.5t-7.5 -18.5t7.5 -19t18.5 -8t19 8t8 19t-8 18.5t-19 7.5z
M277 1422q-46 0 -78 32t-32 78t32 78t78 32t78.5 -32t32.5 -78t-32.5 -78t-78.5 -32z" />
    <glyph glyph-name="Aring" unicode="&#xc5;" 
d="M125 596h602v355q0 108 -76 184.5t-184 76.5h-81q-108 0 -184.5 -76.5t-76.5 -184.5v-355zM467 1337q160 0 272.5 -113t112.5 -273v-888q0 -26 -18 -44.5t-44 -18.5t-44.5 18.5t-18.5 44.5v407h-602v-407q0 -26 -18 -44.5t-44 -18.5t-44.5 18.5t-18.5 44.5v888
q0 160 113 273t273 113h81zM426 1505q11 0 19 8t8 19t-8 18.5t-19 7.5t-18.5 -7.5t-7.5 -18.5t7.5 -19t18.5 -8zM426 1642q46 0 78 -32t32 -78t-32 -78t-78 -32t-78 32t-32 78t32 78t78 32z" />
    <glyph glyph-name="AE" unicode="&#xc6;" horiz-adv-x="1419" 
d="M125 951v-355h471v616h-210q-108 0 -184.5 -76.5t-76.5 -184.5zM1254 1212h-533v-616h387q26 0 44.5 -18.5t18.5 -44.5t-18.5 -44.5t-44.5 -18.5h-387v-345h533q26 0 44.5 -18t18.5 -44t-18.5 -44.5t-44.5 -18.5h-595q-26 0 -44.5 18.5t-18.5 44.5v407h-471v-407
q0 -26 -18 -44.5t-44 -18.5t-44.5 18.5t-18.5 44.5v888q0 160 113 273t273 113h273h595q26 0 44.5 -18.5t18.5 -44.5t-18.5 -44t-44.5 -18z" />
    <glyph glyph-name="Ccedilla" unicode="&#xc7;" 
d="M386 1210q-108 0 -184.5 -76t-76.5 -184v-566q0 -108 76.5 -184t184.5 -76h81q108 0 184 76t76 184q0 26 18.5 44.5t44.5 18.5t44 -18.5t18 -44.5q0 -160 -112.5 -272.5t-272.5 -112.5h-81q-160 0 -273 112.5t-113 272.5v566q0 160 113 273t273 113h81q160 0 272.5 -113
t112.5 -273q0 -26 -18 -44.5t-44 -18.5t-44.5 18.5t-18.5 44.5q0 108 -76 184t-184 76h-81zM374 -106q12 12 29.5 12t29.5 -12q59 -58 59 -140t-59 -141q-13 -13 -30 -13q-16 0 -29 13q-12 12 -12 29.5t12 29.5q34 34 34 81.5t-34 81.5q-12 12 -12 29.5t12 29.5z" />
    <glyph glyph-name="Egrave" unicode="&#xc8;" horiz-adv-x="823" 
d="M659 1212h-534v-481h387q26 0 44.5 -18t18.5 -44t-18.5 -44.5t-44.5 -18.5h-387v-481h534q26 0 44 -18t18 -44t-18 -44.5t-44 -18.5h-596q-26 0 -44.5 18.5t-18.5 44.5v1211q0 26 18.5 44.5t44.5 18.5h596q26 0 44 -18.5t18 -44.5t-18 -44t-44 -18zM224 1633
q13 11 31 8.5t28 -15.5l110 -136q11 -13 9 -31t-15 -28q-12 -9 -26 -9q-21 0 -33 15l-110 137q-11 13 -9 31t15 28z" />
    <glyph glyph-name="Eacute" unicode="&#xc9;" horiz-adv-x="823" 
d="M659 1212h-534v-481h387q26 0 44.5 -18t18.5 -44t-18.5 -44.5t-44.5 -18.5h-387v-481h534q26 0 44 -18t18 -44t-18 -44.5t-44 -18.5h-596q-26 0 -44.5 18.5t-18.5 44.5v1211q0 26 18.5 44.5t44.5 18.5h596q26 0 44 -18.5t18 -44.5t-18 -44t-44 -18zM334 1431
q-13 10 -15 28t9 31l110 136q10 13 28 15.5t31 -8.5q13 -10 15 -28t-9 -31l-110 -137q-12 -15 -32 -15q-15 0 -27 9z" />
    <glyph glyph-name="Ecircumflex" unicode="&#xca;" horiz-adv-x="823" 
d="M659 1212h-534v-481h387q26 0 44.5 -18t18.5 -44t-18.5 -44.5t-44.5 -18.5h-387v-481h534q26 0 44 -18t18 -44t-18 -44.5t-44 -18.5h-596q-26 0 -44.5 18.5t-18.5 44.5v1211q0 26 18.5 44.5t44.5 18.5h596q26 0 44 -18.5t18 -44.5t-18 -44t-44 -18zM361 1642q19 0 32 -16
l110 -136q11 -13 9 -31t-15 -28q-14 -11 -31 -9.5t-28 15.5l-77 97l-78 -97q-12 -15 -33 -15q-14 0 -26 9q-13 10 -15 28t9 31l110 136q13 16 33 16z" />
    <glyph glyph-name="Igrave" unicode="&#xcc;" horiz-adv-x="321" 
d="M157 1337q26 0 44.5 -18.5t18.5 -44.5v-1211q0 -26 -18.5 -44.5t-44.5 -18.5t-44 18.5t-18 44.5v1211q0 26 18 44.5t44 18.5zM157 1422q-20 0 -32 15l-111 137q-11 13 -8.5 31t15.5 28q13 11 31 8.5t28 -15.5l110 -136q11 -13 8.5 -31t-15.5 -28q-12 -9 -26 -9z" />
    <glyph glyph-name="Iacute" unicode="&#xcd;" horiz-adv-x="321" 
d="M63 1337q26 0 44 -18.5t18 -44.5v-1211q0 -26 -18 -44.5t-44 -18.5t-44.5 18.5t-18.5 44.5v1211q0 26 18.5 44.5t44.5 18.5zM199 1633q13 -10 15 -28t-9 -31l-110 -137q-12 -15 -32 -15q-15 0 -27 9q-13 10 -15 28t9 31l110 136q10 13 28 15.5t31 -8.5z" />
    <glyph glyph-name="Icircumflex" unicode="&#xce;" horiz-adv-x="417" 
d="M157 1337q26 0 44.5 -18.5t18.5 -44.5v-1211q0 -26 -18.5 -44.5t-44.5 -18.5t-44 18.5t-18 44.5v1211q0 26 18 44.5t44 18.5zM190 1626l110 -136q11 -13 9 -31t-15 -28q-12 -9 -27 -9q-20 0 -32 15l-78 97l-77 -97q-10 -13 -28 -15t-31 9q-13 10 -15.5 28t8.5 31l111 136
q13 16 32 16q20 0 33 -16z" />
    <glyph glyph-name="Ograve" unicode="&#xd2;" 
d="M290 1633q13 11 31 8.5t28 -15.5l110 -136q11 -13 8.5 -31t-15.5 -28q-12 -9 -26 -9q-20 0 -32 15l-110 137q-11 13 -9 31t15 28zM727 386v565q0 108 -76 184.5t-184 76.5h-81q-108 0 -184.5 -76.5t-76.5 -184.5v-565q0 -108 76.5 -184.5t184.5 -76.5h81q108 0 184 76.5
t76 184.5zM467 1337q160 0 272.5 -113t112.5 -273v-565q0 -160 -112.5 -273t-272.5 -113h-81q-160 0 -273 113t-113 273v565q0 160 113 273t273 113h81z" />
    <glyph glyph-name="Oacute" unicode="&#xd3;" 
d="M504 1626q10 13 28 15.5t31 -8.5q13 -10 15 -28t-9 -31l-110 -137q-12 -15 -33 -15q-14 0 -26 9q-13 10 -15 28t9 31zM727 386v565q0 108 -76 184.5t-184 76.5h-81q-108 0 -184.5 -76.5t-76.5 -184.5v-565q0 -108 76.5 -184.5t184.5 -76.5h81q108 0 184 76.5t76 184.5z
M467 1337q160 0 272.5 -113t112.5 -273v-565q0 -160 -112.5 -273t-272.5 -113h-81q-160 0 -273 113t-113 273v565q0 160 113 273t273 113h81z" />
    <glyph glyph-name="Ocircumflex" unicode="&#xd4;" 
d="M426 1642q20 0 33 -16l110 -136q11 -13 9 -31t-15 -28q-12 -9 -27 -9q-20 0 -32 15l-78 97l-77 -97q-10 -13 -28 -15t-31 9q-13 10 -15 28t9 31l110 136q13 16 32 16zM727 386v565q0 108 -76 184.5t-184 76.5h-81q-108 0 -184.5 -76.5t-76.5 -184.5v-565
q0 -108 76.5 -184.5t184.5 -76.5h81q108 0 184 76.5t76 184.5zM467 1337q160 0 272.5 -113t112.5 -273v-565q0 -160 -112.5 -273t-272.5 -113h-81q-160 0 -273 113t-113 273v565q0 160 113 273t273 113h81z" />
    <glyph glyph-name="Odieresis" unicode="&#xd6;" 
d="M727 386v565q0 108 -76 184.5t-184 76.5h-81q-108 0 -184.5 -76.5t-76.5 -184.5v-565q0 -108 76.5 -184.5t184.5 -76.5h81q108 0 184 76.5t76 184.5zM467 1337q160 0 272.5 -113t112.5 -273v-565q0 -160 -112.5 -273t-272.5 -113h-81q-160 0 -273 113t-113 273v565
q0 160 113 273t273 113h81zM575 1558q-11 0 -19 -7.5t-8 -18.5t8 -19t19 -8t19 8t8 19t-8 18.5t-19 7.5zM575 1422q-46 0 -78 32t-32 78t32 78t78 32t78 -32t32 -78t-32 -78t-78 -32zM304 1532q0 11 -8 18.5t-19 7.5t-18.5 -7.5t-7.5 -18.5t7.5 -19t18.5 -8t19 8t8 19z
M167 1532q0 46 32 78t78 32t78.5 -32t32.5 -78t-32.5 -78t-78.5 -32t-78 32t-32 78z" />
    <glyph glyph-name="Oslash" unicode="&#xd8;" horiz-adv-x="972" 
d="M736 951q0 42 -12 78l-502 -838q74 -66 173 -66h81q108 0 184 76.5t76 184.5v565zM134 386q0 -41 12 -77l502 837q-74 66 -172 66h-81q-108 0 -184.5 -76.5t-76.5 -184.5v-565zM852 1242l-51 -85q60 -95 60 -206v-565q0 -160 -112.5 -273t-272.5 -113h-81q-133 0 -238 83
l-32 -53q-18 -30 -53 -30q-18 0 -33 9q-22 13 -28.5 38.5t7.5 47.5l51 85q-60 95 -60 206v565q0 160 113 273t273 113h81q132 0 237 -83l32 53q13 22 38.5 28.5t47.5 -7.5q22 -13 28.5 -38.5t-7.5 -47.5z" />
    <glyph glyph-name="agrave" unicode="&#xe0;" horiz-adv-x="792" 
d="M345 1159q-21 0 -33 15l-110 137q-11 13 -8.5 31t15.5 28q13 11 30.5 8.5t27.5 -15.5l111 -136q11 -13 8.5 -31t-15.5 -28q-12 -9 -26 -9zM564 314v156h-219q-190 0 -208 -14q-12 -10 -12 -142q0 -78 55.5 -133.5t133.5 -55.5h62q78 0 133 55.5t55 133.5zM690 314
q0 -130 -92 -222t-222 -92h-62q-130 0 -222 92t-92 222q0 42 1 72.5t5.5 59t9.5 47.5t17.5 35.5t24 26.5t34 18.5t43.5 12t57 6.5t69 3.5t84 0.5h219v157q0 78 -55 133t-133 55h-62q-78 0 -133.5 -55t-55.5 -133q0 -26 -18 -44.5t-44 -18.5t-44.5 18.5t-18.5 44.5
q0 130 92 221.5t222 91.5h62q130 0 222 -91.5t92 -221.5v-439z" />
    <glyph glyph-name="aacute" unicode="&#xe1;" horiz-adv-x="792" 
d="M319 1168q-13 10 -15.5 28t8.5 31l111 136q10 13 27.5 15.5t30.5 -8.5q13 -10 15.5 -28t-8.5 -31l-110 -137q-12 -15 -33 -15q-14 0 -26 9zM564 314v156h-219q-190 0 -208 -14q-12 -10 -12 -142q0 -78 55.5 -133.5t133.5 -55.5h62q78 0 133 55.5t55 133.5zM345 596h219
v157q0 78 -55 133t-133 55h-62q-78 0 -133.5 -55t-55.5 -133q0 -26 -18 -44.5t-44 -18.5t-44.5 18.5t-18.5 44.5q0 130 92 221.5t222 91.5h62q130 0 222 -91.5t92 -221.5v-439q0 -130 -92 -222t-222 -92h-62q-130 0 -222 92t-92 222q0 42 1 72.5t5.5 59t9.5 47.5t17.5 35.5
t24 26.5t34 18.5t43.5 12t57 6.5t69 3.5t84 0.5z" />
    <glyph glyph-name="acircumflex" unicode="&#xe2;" horiz-adv-x="792" 
d="M202 1227l110 136q13 16 33 16t33 -16l110 -136q11 -13 8.5 -31t-15.5 -28q-12 -9 -26 -9q-20 0 -32 15l-78 97l-78 -97q-10 -13 -27.5 -15t-30.5 9q-13 10 -15.5 28t8.5 31zM564 314v156h-219q-191 0 -209 -14q-11 -9 -11 -142q0 -78 55.5 -133.5t133.5 -55.5h62
q78 0 133 55.5t55 133.5zM345 596h219v157q0 78 -55 133t-133 55h-62q-78 0 -133.5 -55t-55.5 -133q0 -26 -18 -44.5t-44 -18.5t-44.5 18.5t-18.5 44.5q0 130 92 221.5t222 91.5h62q130 0 222 -91.5t92 -221.5v-439q0 -130 -92 -222t-222 -92h-62q-130 0 -222 92t-92 222
q0 42 1 72.5t5.5 59t9.5 47.5t17.5 35.5t24 26.5t34 18.5t43.5 12t57 6.5t69 3.5t84 0.5z" />
    <glyph glyph-name="atilde" unicode="&#xe3;" horiz-adv-x="792" 
d="M528 1235q-76 -76 -183 -76t-183 76q-12 12 -12 29.5t12 29.5t29.5 12t29.5 -12q52 -52 124 -52t124 52q12 12 29.5 12t29.5 -12t12 -29.5t-12 -29.5zM125 314q0 -78 55.5 -133.5t133.5 -55.5h62q78 0 133 55.5t55 133.5v156h-219q-190 0 -208 -14q-12 -10 -12 -142z
M376 0h-62q-130 0 -222 92t-92 222q0 42 1 72.5t5.5 59t9.5 47.5t17.5 35.5t24 26.5t34 18.5t43.5 12t57 6.5t69 3.5t84 0.5h219v157q0 78 -55 133t-133 55h-62q-78 0 -133.5 -55t-55.5 -133q0 -26 -18 -44.5t-44 -18.5t-44.5 18.5t-18.5 44.5q0 130 92 221.5t222 91.5h62
q130 0 222 -91.5t92 -221.5v-439q0 -130 -92 -222t-222 -92z" />
    <glyph glyph-name="adieresis" unicode="&#xe4;" horiz-adv-x="792" 
d="M467 1269q0 -11 8 -19t19 -8t18.5 8t7.5 19t-7.5 18.5t-18.5 7.5t-19 -7.5t-8 -18.5zM604 1269q0 -46 -32 -78t-78 -32t-78 32t-32 78t32 78t78 32t78 -32t32 -78zM196 1295q-11 0 -18.5 -7.5t-7.5 -18.5t7.5 -19t18.5 -8t19 8t8 19t-8 18.5t-19 7.5zM196 1159
q-46 0 -78 32t-32 78t32 78t78 32t78 -32t32 -78t-32 -78t-78 -32zM564 314v156h-219q-190 0 -208 -14q-12 -10 -12 -142q0 -78 55.5 -133.5t133.5 -55.5h62q78 0 133 55.5t55 133.5zM345 596h219v157q0 78 -55 133t-133 55h-62q-78 0 -133.5 -55t-55.5 -133
q0 -26 -18 -44.5t-44 -18.5t-44.5 18.5t-18.5 44.5q0 130 92 221.5t222 91.5h62q130 0 222 -91.5t92 -221.5v-439q0 -130 -92 -222t-222 -92h-62q-130 0 -222 92t-92 222q0 42 1 72.5t5.5 59t9.5 47.5t17.5 35.5t24 26.5t34 18.5t43.5 12t57 6.5t69 3.5t84 0.5z" />
    <glyph glyph-name="aring" unicode="&#xe5;" horiz-adv-x="792" 
d="M318 1269q0 -11 8 -19t19 -8t18.5 8t7.5 19t-7.5 18.5t-18.5 7.5t-19 -7.5t-8 -18.5zM455 1269q0 -46 -32 -78t-78 -32t-78 32t-32 78t32 78t78 32t78 -32t32 -78zM564 314v156h-219q-190 0 -208 -14q-12 -10 -12 -142q0 -78 55.5 -133.5t133.5 -55.5h62q78 0 133 55.5
t55 133.5zM690 314q0 -130 -92 -222t-222 -92h-62q-130 0 -222 92t-92 222q0 42 1 72.5t5.5 59t9.5 47.5t17.5 35.5t24 26.5t34 18.5t43.5 12t57 6.5t69 3.5t84 0.5h219v157q0 78 -55 133t-133 55h-62q-78 0 -133.5 -55t-55.5 -133q0 -26 -18 -44.5t-44 -18.5t-44.5 18.5
t-18.5 44.5q0 130 92 221.5t222 91.5h62q130 0 222 -91.5t92 -221.5v-439z" />
    <glyph glyph-name="ae" unicode="&#xe6;" horiz-adv-x="1355" 
d="M376 125q78 0 133 55.5t55 133.5v156h-219q-190 0 -208 -14q-12 -10 -12 -142q0 -78 55.5 -133.5t133.5 -55.5h62zM878 941q-78 0 -133 -55t-55 -133v-157h219q191 0 209 14q11 9 11 143q0 78 -55 133t-133 55h-63zM878 0q-76 0 -141.5 34t-109.5 92q-44 -58 -109.5 -92
t-141.5 -34h-62q-130 0 -222 92t-92 222q0 42 1 72.5t5.5 59t9.5 47.5t17.5 35.5t24 26.5t34 18.5t43.5 12t57 6.5t69 3.5t84 0.5h219v157q0 78 -55 133t-133 55h-62q-78 0 -133.5 -55t-55.5 -133q0 -26 -18 -44.5t-44 -18.5t-44.5 18.5t-18.5 44.5q0 130 92 221.5t222 91.5
h62q76 0 141.5 -34t109.5 -92q44 58 109.5 92t141.5 34h63q130 0 221.5 -91.5t91.5 -221.5q0 -53 -2 -89t-9.5 -67.5t-16.5 -50.5t-30.5 -34.5t-42.5 -22.5t-61.5 -12t-79.5 -6t-103 -1h-219v-156q0 -78 55 -133.5t133 -55.5h63q78 0 133 55.5t55 133.5q0 26 18.5 44
t44.5 18t44 -18t18 -44q0 -130 -91.5 -222t-221.5 -92h-63z" />
    <glyph glyph-name="ccedilla" unicode="&#xe7;" horiz-adv-x="792" 
d="M322 -410q-18 0 -30 12t-12 29.5t12 29.5q34 34 34 81.5t-34 81.5q-12 12 -12 29.5t12 29.5t29.5 12t29.5 -12q59 -59 59 -141t-59 -140q-12 -12 -29 -12zM314 1054h62q130 0 222 -92t92 -222q0 -26 -18.5 -44t-44.5 -18t-44.5 18t-18.5 44q0 78 -55 133.5t-133 55.5h-62
q-78 0 -133.5 -55.5t-55.5 -133.5v-439q0 -78 55.5 -133t133.5 -55h62q78 0 133 55t55 133q0 26 18.5 44.5t44.5 18.5t44.5 -18.5t18.5 -44.5q0 -130 -92 -221.5t-222 -91.5h-62q-130 0 -222 91.5t-92 221.5v439q0 130 92 222t222 92z" />
    <glyph glyph-name="egrave" unicode="&#xe8;" horiz-adv-x="792" 
d="M209 1370q13 11 30.5 8.5t27.5 -15.5l111 -136q11 -13 8.5 -31t-15.5 -28q-12 -9 -26 -9q-21 0 -33 15l-110 137q-11 13 -8.5 31t15.5 28zM125 753v-157h220q190 0 208 14q11 9 11 143q0 78 -55 133t-133 55h-62q-78 0 -133.5 -55t-55.5 -133zM314 0q-130 0 -222 92
t-92 222v439q0 130 92 221.5t222 91.5h62q130 0 222 -91.5t92 -221.5q0 -53 -2 -89t-9.5 -67.5t-16.5 -50.5t-30.5 -34.5t-42.5 -22.5t-61.5 -12t-79.5 -6t-103 -1h-220v-156q0 -78 55.5 -133.5t133.5 -55.5h62q78 0 133 55.5t55 133.5q0 26 18.5 44t44.5 18t44.5 -18
t18.5 -44q0 -130 -92 -222t-222 -92h-62z" />
    <glyph glyph-name="eacute" unicode="&#xe9;" horiz-adv-x="792" 
d="M345 1159q-14 0 -26 9q-13 10 -15.5 28t8.5 31l111 136q10 13 27.5 15.5t30.5 -8.5q13 -10 15.5 -28t-8.5 -31l-110 -137q-12 -15 -33 -15zM125 753v-157h220q190 0 208 14q11 9 11 143q0 78 -55 133t-133 55h-62q-78 0 -133.5 -55t-55.5 -133zM345 470h-220v-156
q0 -78 55.5 -133.5t133.5 -55.5h62q78 0 133 55.5t55 133.5q0 26 18.5 44t44.5 18t44.5 -18t18.5 -44q0 -130 -92 -222t-222 -92h-62q-130 0 -222 92t-92 222v439q0 130 92 221.5t222 91.5h62q130 0 222 -91.5t92 -221.5q0 -53 -2 -89t-9.5 -67.5t-16.5 -50.5t-30.5 -34.5
t-42.5 -22.5t-61.5 -12t-79.5 -6t-103 -1z" />
    <glyph glyph-name="ecircumflex" unicode="&#xea;" horiz-adv-x="792" 
d="M209 1168q-13 10 -15.5 28t8.5 31l110 136q13 16 33 16t33 -16l110 -136q11 -13 8.5 -31t-15.5 -28q-12 -9 -26 -9q-20 0 -32 15l-78 97l-78 -97q-10 -13 -27.5 -15t-30.5 9zM125 753v-157h220q190 0 208 14q11 9 11 143q0 78 -55 133t-133 55h-62q-78 0 -133.5 -55
t-55.5 -133zM345 470h-220v-156q0 -78 55.5 -133.5t133.5 -55.5h62q78 0 133 55.5t55 133.5q0 26 18.5 44t44.5 18t44.5 -18t18.5 -44q0 -130 -92 -222t-222 -92h-62q-130 0 -222 92t-92 222v439q0 130 92 221.5t222 91.5h62q130 0 222 -91.5t92 -221.5q0 -53 -2 -89
t-9.5 -67.5t-16.5 -50.5t-30.5 -34.5t-42.5 -22.5t-61.5 -12t-79.5 -6t-103 -1z" />
    <glyph glyph-name="igrave" unicode="&#xec;" horiz-adv-x="321" 
d="M220 63q0 -26 -18.5 -44.5t-44.5 -18.5t-44 18.5t-18 44.5v941q0 26 18 44t44 18t44.5 -18t18.5 -44v-941zM157 1159q-20 0 -32 15l-111 137q-11 13 -8.5 31t15.5 28q13 11 31 8.5t28 -15.5l110 -136q11 -13 8.5 -31t-15.5 -28q-12 -9 -26 -9z" />
    <glyph glyph-name="iacute" unicode="&#xed;" horiz-adv-x="321" 
d="M0 1004q0 26 18.5 44t44.5 18t44 -18t18 -44v-941q0 -26 -18 -44.5t-44 -18.5t-44.5 18.5t-18.5 44.5v941zM63 1159q-15 0 -27 9q-13 10 -15 28t9 31l110 136q10 13 28 15.5t31 -8.5q13 -10 15 -28t-9 -31l-110 -137q-12 -15 -32 -15z" />
    <glyph glyph-name="icircumflex" unicode="&#xee;" horiz-adv-x="417" 
d="M95 1004q0 26 18 44t44 18t44.5 -18t18.5 -44v-941q0 -26 -18.5 -44.5t-44.5 -18.5t-44 18.5t-18 44.5v941zM267 1159q-20 0 -32 15l-78 97l-77 -97q-10 -13 -28 -15t-31 9q-13 10 -15.5 28t8.5 31l111 136q13 16 32 16q20 0 33 -16l110 -136q11 -13 9 -31t-15 -28
q-12 -9 -27 -9z" />
    <glyph glyph-name="ograve" unicode="&#xf2;" horiz-adv-x="792" 
d="M345 1151q-21 0 -33 15l-110 137q-11 13 -8.5 31t15.5 28q13 11 30.5 9t27.5 -15l111 -137q11 -13 8.5 -31t-15.5 -28q-12 -9 -26 -9zM125 753v-439q0 -78 55.5 -133.5t133.5 -55.5h62q78 0 133 55.5t55 133.5v439q0 78 -55 133t-133 55h-62q-78 0 -133.5 -55t-55.5 -133
zM0 753q0 130 92 221.5t222 91.5h62q130 0 222 -91.5t92 -221.5v-439q0 -130 -92 -222t-222 -92h-62q-130 0 -222 92t-92 222v439z" />
    <glyph glyph-name="oacute" unicode="&#xf3;" horiz-adv-x="792" 
d="M345 1151q-14 0 -26 9q-13 10 -15.5 28t8.5 31l111 137q10 13 27.5 15t30.5 -9q13 -10 15.5 -28t-8.5 -31l-110 -137q-12 -15 -33 -15zM125 753v-439q0 -78 55.5 -133.5t133.5 -55.5h62q78 0 133 55.5t55 133.5v439q0 78 -55 133t-133 55h-62q-78 0 -133.5 -55
t-55.5 -133zM0 753q0 130 92 221.5t222 91.5h62q130 0 222 -91.5t92 -221.5v-439q0 -130 -92 -222t-222 -92h-62q-130 0 -222 92t-92 222v439z" />
    <glyph glyph-name="ocircumflex" unicode="&#xf4;" horiz-adv-x="792" 
d="M267 1166q-10 -13 -27.5 -15t-30.5 9q-13 10 -15.5 28t8.5 31l110 137q12 15 33 15t33 -15l110 -137q11 -13 8.5 -31t-15.5 -28q-12 -9 -26 -9q-20 0 -32 15l-78 97zM125 753v-439q0 -78 55.5 -133.5t133.5 -55.5h62q78 0 133 55.5t55 133.5v439q0 78 -55 133t-133 55
h-62q-78 0 -133.5 -55t-55.5 -133zM0 753q0 130 92 221.5t222 91.5h62q130 0 222 -91.5t92 -221.5v-439q0 -130 -92 -222t-222 -92h-62q-130 0 -222 92t-92 222v439z" />
    <glyph glyph-name="odieresis" unicode="&#xf6;" horiz-adv-x="792" 
d="M467 1261q0 -11 8 -19t19 -8t18.5 8t7.5 19t-7.5 19t-18.5 8t-19 -8t-8 -19zM604 1261q0 -46 -32 -78t-78 -32t-78 32t-32 78t32 78t78 32t78 -32t32 -78zM196 1288q-11 0 -18.5 -8t-7.5 -19t7.5 -19t18.5 -8t19 8t8 19t-8 19t-19 8zM196 1151q-46 0 -78 32t-32 78t32 78
t78 32t78 -32t32 -78t-32 -78t-78 -32zM125 314q0 -78 55.5 -133.5t133.5 -55.5h62q78 0 133 55.5t55 133.5v439q0 78 -55 133t-133 55h-62q-78 0 -133.5 -55t-55.5 -133v-439zM376 0h-62q-130 0 -222 92t-92 222v439q0 130 92 221.5t222 91.5h62q130 0 222 -91.5t92 -221.5
v-439q0 -130 -92 -222t-222 -92z" />
    <glyph glyph-name="oslash" unicode="&#xf8;" horiz-adv-x="811" 
d="M573 314v439q0 15 -1 22l-365 -609q52 -41 115 -41h63q78 0 133 55.5t55 133.5zM134 314q0 -8 2 -22l365 609q-51 40 -116 40h-63q-78 0 -133 -55t-55 -133v-439zM699 753v-439q0 -130 -92 -222t-222 -92h-63q-98 0 -180 58l-17 -28q-18 -30 -53 -30q-18 0 -33 9
q-22 13 -28.5 38.5t7.5 47.5l35 59q-44 74 -44 160v439q0 130 91.5 221.5t221.5 91.5h63q99 0 181 -58l16 28q13 22 38.5 28.5t47.5 -7.5q23 -14 29 -38.5t-7 -47.5l-35 -59q44 -74 44 -159z" />
    <glyph glyph-name="Scedilla" unicode="&#x15e;" 
d="M386 1210q-108 0 -184.5 -76t-76.5 -184q0 -38 8.5 -67.5t29.5 -51.5t43.5 -37t64 -28t76.5 -21.5t94 -19.5q38 -7 56.5 -11t56 -13t58 -16.5t53 -20t51.5 -26t43.5 -32t39 -41t28 -49.5t19.5 -60.5t6 -71.5q0 -160 -112.5 -272.5t-272.5 -112.5h-81q-160 0 -273 112.5
t-113 272.5q0 26 18.5 44.5t44.5 18.5t44 -18.5t18 -44.5q0 -108 76.5 -184t184.5 -76h81q108 0 184 76t76 184q0 37 -8.5 65.5t-29 49.5t-42.5 35.5t-62.5 27t-75 21t-92.5 19.5q-42 8 -64 12.5t-63 15t-64.5 19.5t-58 25t-55.5 33t-45 42t-36.5 53.5t-21.5 66.5t-9 81
q0 160 113 273t273 113h81q160 0 272.5 -113t112.5 -273q0 -26 -18 -44.5t-44 -18.5t-44.5 18.5t-18.5 44.5q0 108 -76 184t-184 76h-81zM374 -106q12 12 29.5 12t29.5 -12q58 -58 58 -141q0 -82 -58 -140q-13 -13 -30 -13q-16 0 -29 13q-12 12 -12 29.5t12 29.5
q33 33 33 81q0 49 -33 82q-12 12 -12 29.5t12 29.5z" />
    <glyph glyph-name="scedilla" unicode="&#x15f;" horiz-adv-x="792" 
d="M315 -398q-12 12 -12 29.5t12 29.5q34 34 34 81.5t-34 81.5q-12 12 -12 29.5t12 29.5t30 12t30 -12q59 -59 59 -141t-59 -140q-12 -12 -30 -12t-30 12zM376 113q78 0 133 55t55 133q0 71 -48 100.5t-181 55.5q-41 8 -63.5 13t-63.5 16.5t-65 24t-54.5 34.5t-47.5 48
t-29 64t-12 83q0 130 92 222t222 92h62q130 0 222 -92t92 -222q0 -26 -18.5 -44t-44.5 -18t-44.5 18t-18.5 44q0 78 -55 133.5t-133 55.5h-62q-78 0 -133.5 -55.5t-55.5 -133.5q0 -74 49 -104t185 -56q40 -8 63 -13t63 -16.5t64 -24t54 -34t46.5 -47t28.5 -63t12 -81.5
q0 -130 -92 -221.5t-222 -91.5h-62q-130 0 -222 91.5t-92 221.5q0 26 18.5 44.5t44.5 18.5t44 -18.5t18 -44.5q0 -78 55.5 -133t133.5 -55h62z" />
    <glyph glyph-name="uni162" unicode="&#x162;" 
d="M790 1336q26 0 44 -18.5t18 -44.5t-18 -44.5t-44 -18.5h-301v-1149q0 -26 -18.5 -44t-44.5 -18t-44 18t-18 44v1149h-301q-26 0 -44.5 18.5t-18.5 44.5t18.5 44.5t44.5 18.5h727zM397 -106q12 12 29.5 12t29.5 -12q58 -58 58 -140t-58 -141q-13 -13 -30 -13q-16 0 -29 13
q-12 12 -12 29.5t12 29.5q34 34 34 81.5t-34 81.5q-12 12 -12 29.5t12 29.5z" />
    <glyph glyph-name="uni163" unicode="&#x163;" horiz-adv-x="479" 
d="M210 -419q-12 -12 -29 -12q-18 0 -30 12t-12 29.5t12 29.5q34 34 34 82q0 47 -34 81q-12 12 -12 29.5t12 29.5t29.5 12t29.5 -12q59 -59 59 -140q0 -82 -59 -141zM314 92q26 0 44 -18t18 -44t-18 -44.5t-44 -18.5q-130 0 -222 91.5t-92 221.5v1083q0 26 18.5 44.5
t44.5 18.5t44 -18.5t18 -44.5v-330h79q26 0 44.5 -18.5t18.5 -44.5t-18.5 -44t-44.5 -18h-79v-628q0 -78 55.5 -133t133.5 -55z" />
  </font>
</defs>
</svg>
